<svg width="801" height="311" viewBox="0 0 801 311" fill="none" xmlns="http://www.w3.org/2000/svg">
<g opacity="0.45">
<circle cx="400.499" cy="443.036" r="441.844" fill="#3A3F42" fill-opacity="0.1" stroke="#2B2F31"/>
<circle cx="400.499" cy="443.036" r="341.178" fill="#3A3F42" fill-opacity="0.15" stroke="#2B2F31"/>
<circle cx="400.5" cy="443.036" r="240.708" fill="#3A3F42" fill-opacity="0.2" stroke="#313538"/>
<circle cx="310.238" cy="167.131" r="33.6312" fill="#232628" stroke="#313538"/>
<path d="M302.119 179.269L295.669 168.096C295.324 167.499 295.324 166.763 295.669 166.167L302.119 154.994C302.464 154.398 303.099 154.03 303.787 154.029H316.695C317.381 154.032 318.013 154.4 318.356 154.994L324.806 166.167C325.15 166.763 325.15 167.499 324.806 168.096L318.355 179.269C318.011 179.865 317.375 180.233 316.687 180.234H303.783C303.096 180.231 302.462 179.864 302.118 179.269H302.119Z" fill="#4386FA"/>
<path opacity="0.1" d="M314.267 163.533C314.267 163.533 316.06 167.835 313.616 170.273C311.171 172.711 306.72 171.15 306.72 171.15L315.774 180.23H316.694C317.382 180.229 318.018 179.861 318.362 179.265L322.632 171.871L314.267 163.533Z" fill="black"/>
<path d="M316.384 172.335L314.407 170.353C314.385 170.331 314.361 170.312 314.334 170.297C315.175 169.214 315.571 167.851 315.442 166.486C315.313 165.12 314.668 163.856 313.639 162.949C312.61 162.043 311.274 161.563 309.904 161.607C308.533 161.651 307.231 162.216 306.262 163.187C305.294 164.158 304.732 165.462 304.691 166.832C304.65 168.203 305.133 169.538 306.042 170.565C306.951 171.591 308.218 172.233 309.583 172.359C310.949 172.484 312.311 172.085 313.392 171.241C313.406 171.267 313.424 171.29 313.445 171.311L315.426 173.292C315.484 173.35 315.563 173.383 315.646 173.383C315.728 173.383 315.807 173.35 315.865 173.292L316.384 172.773C316.442 172.715 316.475 172.636 316.475 172.554C316.475 172.472 316.442 172.393 316.384 172.335V172.335ZM310.07 171.053C309.268 171.053 308.484 170.815 307.817 170.37C307.151 169.924 306.631 169.291 306.324 168.55C306.017 167.81 305.937 166.994 306.093 166.208C306.25 165.421 306.636 164.699 307.203 164.132C307.77 163.565 308.492 163.179 309.279 163.022C310.065 162.866 310.88 162.946 311.621 163.253C312.362 163.56 312.995 164.08 313.441 164.747C313.886 165.413 314.124 166.197 314.124 166.999C314.124 168.074 313.697 169.105 312.936 169.866C312.176 170.626 311.145 171.053 310.07 171.053V171.053ZM307.479 166.783V168.458C307.737 168.914 308.11 169.294 308.562 169.559V166.773L307.479 166.783ZM309.506 165.394V169.921C309.864 169.987 310.231 169.987 310.589 169.921V165.394H309.506ZM312.64 168.455V167.462H311.557V169.547C312.008 169.283 312.382 168.904 312.641 168.45L312.64 168.455Z" fill="white"/>
<circle cx="400.5" cy="150.131" r="33.6312" fill="#232628" stroke="#313538"/>
<path fill-rule="evenodd" clip-rule="evenodd" d="M404.604 135.705C405.502 136.096 405.621 136.436 405.756 138.99L405.872 141.184L407.697 140.119C409.74 138.927 410.414 138.823 411.276 139.564C411.998 140.185 412.087 141.372 411.464 142.061C410.832 142.76 404.381 146.367 403.763 146.367C403.459 146.367 402.939 146.134 402.607 145.849L402.004 145.33L401.937 141.302C401.86 136.745 401.982 136.165 403.108 135.694C403.94 135.346 403.778 135.345 404.604 135.705ZM397.938 135.703C399.012 136.171 399.138 136.798 399.062 141.302L398.995 145.33L398.392 145.849C398.061 146.134 397.54 146.367 397.236 146.367C396.618 146.367 390.167 142.76 389.535 142.061C388.912 141.372 389.001 140.185 389.723 139.564C390.585 138.823 391.259 138.927 393.302 140.119L395.127 141.184L395.234 138.99C395.355 136.526 395.57 135.978 396.551 135.636C396.926 135.505 397.242 135.402 397.254 135.406C397.266 135.411 397.574 135.545 397.938 135.703ZM414.099 144.98C415.215 145.449 415.576 146.741 414.845 147.645C414.638 147.9 413.662 148.575 412.676 149.144L410.883 150.178L412.676 151.201C414.693 152.353 415.209 152.871 415.216 153.75C415.222 154.535 414.173 155.616 413.405 155.616C412.838 155.616 406.708 152.256 405.818 151.458C405.219 150.92 405.162 149.622 405.711 149C406.128 148.527 412.271 144.995 412.987 144.816C413.237 144.754 413.737 144.827 414.099 144.98ZM388.031 144.825C388.601 144.942 394.781 148.494 395.275 148.989C395.844 149.558 395.792 150.907 395.181 151.464C394.322 152.246 388.159 155.616 387.588 155.616C386.853 155.616 385.778 154.532 385.778 153.79C385.778 152.833 386.13 152.466 388.163 151.302L390.121 150.181L388.326 149.145C387.339 148.576 386.361 147.9 386.154 147.645C385.116 146.362 386.367 144.483 388.031 144.825ZM402.601 148.254C403.577 149.239 404.045 149.879 404.045 150.227C404.045 150.975 401.307 153.68 400.55 153.68C399.768 153.68 396.954 150.974 396.954 150.221C396.954 149.85 397.393 149.253 398.41 148.243C400.361 146.305 400.669 146.306 402.601 148.254ZM399.428 150.003C399.3 150.318 400.091 151.314 400.469 151.314C400.753 151.314 401.682 150.439 401.682 150.172C401.682 150.058 401.434 149.736 401.132 149.456C400.6 148.963 400.566 148.958 400.067 149.324C399.783 149.531 399.495 149.837 399.428 150.003ZM408.019 156.104C411.611 158.179 412.181 158.724 411.906 159.82C411.835 160.103 411.566 160.532 411.309 160.772C410.546 161.483 409.529 161.333 407.699 160.24C406.812 159.71 406.023 159.276 405.945 159.274C405.868 159.273 405.771 160.297 405.731 161.549C405.66 163.737 405.634 163.847 405.054 164.345C404.284 165.008 403.377 165.008 402.607 164.346L402.004 163.827L401.936 159.899C401.862 155.619 401.914 155.168 402.547 154.535C403.389 153.691 404.29 153.95 408.019 156.104ZM398.194 154.254C398.937 154.553 399.103 155.528 399.103 159.6V163.607L398.474 164.235C397.687 165.023 396.779 165.063 395.945 164.345C395.365 163.847 395.339 163.737 395.268 161.549C395.228 160.297 395.131 159.273 395.054 159.274C394.976 159.276 394.187 159.71 393.3 160.24C391.375 161.39 390.426 161.5 389.641 160.664C389.069 160.054 388.954 158.881 389.413 158.327C389.567 158.14 391.223 157.115 393.091 156.049C396.398 154.161 397.234 153.868 398.194 154.254Z" fill="#29B5E8"/>
<circle cx="490.763" cy="167.131" r="33.6312" fill="#232628" stroke="#313538"/>
<g clip-path="url(#clip0_1155_83108)">
<path opacity="0.2" d="M505.475 170.063C505.297 169.541 504.831 169.177 504.229 169.09C503.945 169.049 503.62 169.066 503.235 169.143C502.564 169.277 502.066 169.328 501.703 169.338C503.074 167.093 504.189 164.534 504.831 162.124C505.869 158.227 505.314 156.452 504.666 155.649C502.951 153.524 500.448 152.382 497.43 152.348C495.819 152.328 494.406 152.637 493.668 152.858C492.982 152.741 492.243 152.675 491.469 152.663C490.016 152.641 488.733 152.948 487.637 153.579C487.03 153.38 486.056 153.099 484.931 152.92C482.285 152.499 480.153 152.827 478.593 153.896C476.704 155.189 475.829 157.437 475.991 160.577C476.042 161.574 476.617 164.606 477.522 167.483C478.043 169.136 478.598 170.509 479.171 171.563C479.985 173.059 480.856 173.94 481.834 174.256C482.382 174.433 483.378 174.557 484.425 173.711C484.558 173.867 484.735 174.022 484.97 174.166C485.268 174.349 485.633 174.498 485.998 174.586C487.311 174.905 488.542 174.825 489.592 174.378C489.598 174.56 489.603 174.733 489.607 174.882C489.614 175.124 489.621 175.362 489.63 175.584C489.693 177.086 489.798 178.254 490.11 179.072C490.127 179.117 490.15 179.185 490.175 179.258C490.331 179.72 490.591 180.495 491.254 181.101C491.94 181.729 492.77 181.922 493.531 181.922C493.912 181.922 494.276 181.873 494.595 181.807C495.732 181.571 497.024 181.211 497.959 179.92C498.842 178.7 499.272 176.863 499.349 173.968C499.359 173.886 499.369 173.808 499.378 173.734L499.396 173.581L499.604 173.598L499.658 173.602C500.816 173.653 502.233 173.415 503.103 173.023C503.791 172.713 505.993 171.586 505.475 170.063" fill="black"/>
<path d="M503.822 170.358C500.377 171.047 500.141 169.916 500.141 169.916C503.778 164.682 505.298 158.039 503.986 156.413C500.406 151.978 494.21 154.075 494.107 154.13L494.073 154.136C493.393 153.999 492.631 153.917 491.775 153.903C490.217 153.879 489.034 154.3 488.137 154.959C488.137 154.959 477.083 150.543 477.597 160.513C477.707 162.634 480.732 176.562 484.341 172.355C485.66 170.817 486.934 169.516 486.934 169.516C487.567 169.924 488.325 170.132 489.119 170.057L489.181 170.006C489.162 170.197 489.171 170.384 489.206 170.605C488.276 171.612 488.549 171.789 486.691 172.16C484.81 172.536 485.915 173.205 486.636 173.38C487.511 173.592 489.534 173.892 490.9 172.037L490.846 172.249C491.21 172.532 491.466 174.089 491.423 175.501C491.38 176.912 491.352 177.882 491.638 178.639C491.926 179.396 492.212 181.099 494.655 180.592C496.696 180.167 497.754 179.068 497.901 177.234C498.005 175.931 498.242 176.123 498.257 174.958L498.446 174.406C498.665 172.639 498.481 172.069 499.739 172.334L500.044 172.36C500.97 172.401 502.181 172.215 502.893 171.895C504.424 171.206 505.332 170.055 503.822 170.358H503.822" fill="#336791"/>
<path d="M488.455 161.462C488.145 161.42 487.863 161.459 487.721 161.563C487.641 161.622 487.616 161.69 487.61 161.737C487.592 161.861 487.682 161.998 487.737 162.069C487.893 162.269 488.12 162.407 488.346 162.437C488.378 162.442 488.411 162.444 488.443 162.444C488.819 162.444 489.161 162.16 489.191 161.951C489.229 161.688 488.836 161.513 488.455 161.462" fill="white"/>
<path d="M498.738 161.47C498.709 161.265 498.331 161.206 497.973 161.254C497.615 161.303 497.269 161.459 497.298 161.665C497.321 161.825 497.619 162.099 497.973 162.099C498.002 162.099 498.033 162.097 498.063 162.093C498.299 162.061 498.472 161.916 498.554 161.832C498.679 161.705 498.752 161.563 498.738 161.47" fill="white"/>
<path d="M504.639 170.28C504.508 169.895 504.085 169.771 503.383 169.911C501.297 170.329 500.55 170.04 500.305 169.865C501.926 167.47 503.26 164.575 503.979 161.874C504.32 160.595 504.508 159.406 504.524 158.438C504.541 157.375 504.354 156.594 503.969 156.117C502.417 154.193 500.138 153.161 497.38 153.133C495.484 153.112 493.882 153.583 493.572 153.715C492.918 153.557 492.205 153.461 491.429 153.448C490.005 153.426 488.775 153.756 487.756 154.43C487.314 154.27 486.171 153.89 484.772 153.671C482.355 153.294 480.433 153.58 479.062 154.522C477.427 155.645 476.671 157.655 476.818 160.493C476.867 161.448 477.428 164.385 478.313 167.198C479.479 170.901 480.746 172.997 482.079 173.429C482.235 173.479 482.415 173.514 482.613 173.514C483.099 173.514 483.695 173.302 484.316 172.579C485.072 171.698 485.855 170.84 486.663 170.003C487.187 170.276 487.762 170.428 488.351 170.444C488.352 170.459 488.354 170.474 488.355 170.488C488.254 170.606 488.155 170.724 488.057 170.845C487.649 171.347 487.565 171.452 486.251 171.714C485.878 171.789 484.886 171.987 484.871 172.661C484.855 173.398 486.044 173.708 486.179 173.741C486.651 173.855 487.106 173.912 487.539 173.912C488.594 173.912 489.522 173.576 490.263 172.925C490.24 175.552 490.353 178.141 490.679 178.929C490.945 179.575 491.596 181.153 493.651 181.153C493.953 181.153 494.285 181.119 494.65 181.043C496.795 180.597 497.727 179.677 498.087 177.65C498.28 176.567 498.611 173.98 498.767 172.592C499.095 172.691 499.518 172.737 499.975 172.737C500.929 172.737 502.029 172.54 502.719 172.23C503.494 171.881 504.893 171.024 504.639 170.28V170.28ZM499.531 160.903C499.524 161.312 499.465 161.684 499.404 162.073C499.337 162.49 499.269 162.922 499.252 163.446C499.235 163.956 499.3 164.486 499.364 164.999C499.492 166.034 499.624 167.101 499.114 168.153C499.029 168.007 498.954 167.857 498.888 167.702C498.825 167.553 498.687 167.314 498.497 166.983C497.755 165.694 496.02 162.675 496.908 161.443C497.173 161.077 497.845 160.7 499.531 160.903V160.903ZM497.487 153.963C499.958 154.015 501.913 154.912 503.297 156.627C504.358 157.942 503.189 163.928 499.806 169.092C499.772 169.05 499.737 169.008 499.703 168.966L499.66 168.914C500.534 167.514 500.364 166.128 500.211 164.9C500.149 164.396 500.09 163.92 500.105 163.472C500.12 162.998 500.185 162.592 500.247 162.199C500.324 161.714 500.402 161.213 500.381 160.622C500.397 160.56 500.403 160.487 500.395 160.4C500.34 159.833 499.673 158.137 498.313 156.602C497.569 155.762 496.484 154.823 495.003 154.189C495.64 154.061 496.511 153.942 497.487 153.963V153.963ZM483.659 172.049C482.976 172.846 482.504 172.693 482.349 172.643C481.338 172.316 480.164 170.244 479.13 166.957C478.235 164.113 477.712 161.253 477.67 160.451C477.539 157.915 478.173 156.148 479.554 155.198C481.802 153.652 485.497 154.577 486.982 155.047C486.961 155.067 486.938 155.086 486.917 155.107C484.481 157.493 484.539 161.57 484.545 161.82C484.544 161.916 484.553 162.052 484.564 162.239C484.606 162.925 484.684 164.201 484.476 165.646C484.282 166.989 484.709 168.304 485.647 169.253C485.743 169.35 485.844 169.443 485.95 169.53C485.532 169.964 484.625 170.923 483.659 172.049V172.049ZM486.263 168.68C485.507 167.915 485.164 166.851 485.321 165.761C485.541 164.234 485.46 162.904 485.416 162.19C485.41 162.09 485.405 162.002 485.402 161.933C485.757 161.627 487.407 160.77 488.583 161.032C489.12 161.151 489.447 161.505 489.583 162.115C490.287 165.272 489.676 166.587 489.186 167.645C489.085 167.863 488.989 168.068 488.907 168.281L488.844 168.446C488.684 168.862 488.535 169.249 488.443 169.617C487.639 169.615 486.858 169.282 486.263 168.68V168.68ZM486.386 172.937C486.152 172.881 485.941 172.782 485.817 172.7C485.92 172.653 486.104 172.589 486.424 172.525C487.968 172.216 488.207 171.999 488.728 171.357C488.847 171.21 488.983 171.043 489.17 170.84L489.171 170.84C489.45 170.537 489.578 170.588 489.809 170.681C489.997 170.757 490.18 170.985 490.254 171.236C490.289 171.355 490.329 171.58 490.2 171.755C489.111 173.233 487.525 173.214 486.386 172.937V172.937ZM494.471 180.233C492.581 180.626 491.912 179.691 491.471 178.622C491.187 177.932 491.047 174.82 491.146 171.383C491.147 171.337 491.141 171.293 491.128 171.251C491.116 171.169 491.098 171.088 491.075 171.008C490.927 170.508 490.568 170.09 490.136 169.917C489.965 169.848 489.65 169.721 489.272 169.815C489.353 169.493 489.492 169.129 489.644 168.735L489.708 168.57C489.779 168.383 489.869 168.189 489.964 167.984C490.478 166.878 491.181 165.363 490.418 161.94C490.132 160.658 489.177 160.032 487.73 160.177C486.862 160.264 486.068 160.604 485.673 160.799C485.587 160.84 485.51 160.881 485.437 160.92C485.547 159.628 485.965 157.214 487.526 155.687C488.51 154.725 489.819 154.25 491.415 154.276C494.558 154.326 496.574 155.89 497.712 157.194C498.692 158.318 499.223 159.449 499.435 160.06C497.842 159.902 496.758 160.207 496.209 160.969C495.014 162.626 496.863 165.841 497.751 167.386C497.914 167.669 498.055 167.914 498.099 168.018C498.388 168.698 498.763 169.152 499.036 169.483C499.12 169.585 499.202 169.683 499.263 169.769C498.781 169.904 497.914 170.216 497.993 171.774C497.929 172.556 497.476 176.216 497.246 177.509C496.942 179.218 496.294 179.854 494.471 180.233V180.233ZM502.36 171.479C501.866 171.701 501.041 171.868 500.256 171.903C499.39 171.943 498.949 171.809 498.845 171.727C498.796 170.756 499.169 170.655 499.563 170.547C499.625 170.531 499.686 170.514 499.744 170.494C499.78 170.523 499.82 170.551 499.864 170.579C500.56 171.025 501.802 171.073 503.556 170.722L503.575 170.718C503.338 170.933 502.934 171.221 502.36 171.479Z" fill="white"/>
</g>
</g>
<defs>
<clipPath id="clip0_1155_83108">
<rect width="29.6541" height="29.6541" fill="white" transform="translate(475.936 152.304)"/>
</clipPath>
</defs>
</svg>
