<svg width="2919" height="563" viewBox="0 0 2919 563" fill="none" xmlns="http://www.w3.org/2000/svg">
<g opacity="0.8">
<path d="M465.202 410.28L464.93 409.362L1102.5 162.281H1772.57L2454.62 412.578L2454.35 413.496L465.202 410.28ZM2449.65 412.24L2391.22 390.776L2224.93 390.515L2273.14 411.956L2449.64 412.24H2449.65ZM2269.49 411.951L2221.35 390.51L2054.66 390.25L2092.59 411.666L2269.49 411.951ZM2089.33 411.661L2051.47 390.245L1884.4 389.984L1912.05 411.376L2089.33 411.661ZM1909.15 411.371L1881.57 389.979L1714.19 389.718L1731.55 411.081L1909.15 411.366V411.371ZM1728.94 411.081L1711.65 389.718L1544.02 389.458L1551.1 410.797L1728.94 411.081ZM1548.68 410.792L1541.66 389.453L1373.92 389.192L1370.72 410.507L1548.67 410.797L1548.68 410.792ZM1368.34 410.502L1371.6 389.187L1203.91 388.926L1190.43 410.217L1368.34 410.507V410.502ZM1187.92 410.212L1201.46 388.926L1033.97 388.666L1010.21 409.927L1187.92 410.212ZM1007.43 409.923L1031.25 388.661L864.058 388.4L830.016 409.638L1007.43 409.923ZM826.9 409.633L861.01 388.395L694.181 388.134L649.855 409.348L826.9 409.633ZM646.354 409.338L690.743 388.125L524.304 387.864L469.7 409.034L646.354 409.319V409.338ZM2387.8 389.53L2329.37 368.061L2173.9 367.824L2222.11 389.264L2387.8 389.525V389.53ZM2218.53 389.264L2170.38 367.824L2014.51 367.587L2052.44 389.004L2218.53 389.264ZM2049.26 388.999L2011.39 367.583L1855.14 367.346L1882.79 388.738L2049.26 388.999ZM1879.96 388.733L1852.38 367.341L1695.81 367.104L1713.18 388.468L1879.96 388.728V388.733ZM1710.64 388.468L1693.34 367.104L1536.53 366.868L1543.61 388.207L1710.64 388.468ZM1541.26 388.202L1534.24 366.863L1377.31 366.626L1374.11 387.941L1541.25 388.202H1541.26ZM1371.8 387.936L1375.06 366.622L1218.19 366.385L1204.71 387.676L1371.8 387.936ZM1202.26 387.671L1215.81 366.385L1059.13 366.148L1035.37 387.41L1202.26 387.671ZM1032.65 387.405L1056.48 366.144L900.101 365.907L866.059 387.145L1032.65 387.405ZM863.011 387.14L897.121 365.902L741.109 365.665L696.783 386.879L863.011 387.14ZM693.351 386.874L737.739 365.661L582.117 365.429L527.513 386.613L693.351 386.874ZM2325.94 366.8L2267.51 345.336L2122.86 345.128L2171.07 366.568L2325.94 366.8ZM2167.56 366.564L2119.41 345.123L1974.36 344.916L2012.28 366.332L2167.56 366.564ZM2009.17 366.327L1971.3 344.911L1825.87 344.703L1853.52 366.095L2009.17 366.332V366.327ZM1850.76 366.09L1823.18 344.698L1677.42 344.491L1694.79 365.859L1850.76 366.095L1850.76 366.09ZM1692.32 365.854L1675.02 344.491L1529.03 344.283L1536.11 365.622L1692.32 365.859V365.854ZM1533.82 365.617L1526.8 344.278L1380.7 344.071L1377.49 365.385L1533.81 365.622L1533.82 365.617ZM1375.25 365.381L1378.52 344.066L1232.46 343.858L1218.98 365.149L1375.25 365.385V365.381ZM1216.6 365.144L1230.15 343.858L1084.29 343.65L1060.52 364.912L1216.6 365.149V365.144ZM1057.88 364.907L1081.71 343.646L936.145 343.438L902.102 364.676L1057.88 364.912V364.907ZM899.123 364.666L933.233 343.428L788.037 343.221L743.711 364.434L899.123 364.666ZM740.347 364.429L784.735 343.216L639.93 343.008L585.326 364.193L740.347 364.424V364.429ZM2264.09 344.09L2205.66 322.62L2071.82 322.437L2120.04 343.877L2264.1 344.085L2264.09 344.09ZM2116.59 343.877L2068.44 322.437L1934.2 322.253L1972.13 343.67L2116.59 343.877ZM1969.09 343.665L1931.22 322.249L1796.61 322.065L1824.26 343.457L1969.09 343.665ZM1821.56 343.452L1793.98 322.06L1659.04 321.877L1676.41 343.245L1821.57 343.452H1821.56ZM1674 343.24L1656.71 321.877L1521.53 321.693L1528.61 343.032L1674.01 343.24H1674ZM1526.39 343.027L1519.37 321.688L1384.08 321.505L1380.88 342.82L1526.39 343.027H1526.39ZM1378.71 342.815L1381.97 321.5L1246.73 321.317L1233.25 342.603L1378.71 342.81V342.815ZM1230.94 342.603L1244.49 321.312L1109.45 321.128L1085.68 342.39L1230.94 342.598V342.603ZM1083.11 342.39L1106.93 321.128L972.188 320.945L938.146 342.182L1083.11 342.39ZM935.234 342.178L969.344 320.94L834.959 320.756L790.633 341.97L935.228 342.178H935.234ZM787.344 341.965L831.732 320.752L697.743 320.568L643.139 341.753L787.344 341.96V341.965ZM2202.24 321.36L2143.81 299.891L2020.78 299.736L2069 321.181L2202.24 321.36ZM2065.62 321.177L2017.48 299.736L1894.05 299.582L1931.98 320.998L2065.62 321.181V321.177ZM1929 320.993L1891.14 299.577L1767.34 299.422L1794.99 320.814L1929 320.998V320.993ZM1792.36 320.81L1764.78 299.417L1640.66 299.263L1658.03 320.626L1792.37 320.81H1792.36ZM1655.69 320.626L1638.4 299.263L1514.03 299.104L1521.11 320.443L1655.7 320.626H1655.69ZM1518.97 320.443L1511.95 299.104L1387.47 298.944L1384.27 320.259L1518.96 320.443H1518.97ZM1382.16 320.259L1385.43 298.944L1261.01 298.785L1247.52 320.071L1382.16 320.254V320.259ZM1245.28 320.076L1258.83 298.785L1134.61 298.63L1110.84 319.892L1245.28 320.076ZM1108.33 319.892L1132.16 298.63L1008.23 298.476L974.189 319.713L1108.33 319.897V319.892ZM971.345 319.709L1005.46 298.471L881.894 298.316L837.568 319.53L971.345 319.713V319.709ZM834.34 319.525L878.728 298.312L755.556 298.157L700.952 319.342L834.334 319.525H834.34ZM2140.38 298.655L2081.95 277.185L1969.74 277.055L2017.96 298.495L2140.39 298.65L2140.38 298.655ZM2014.65 298.495L1966.5 277.055L1853.89 276.924L1891.83 298.341L2014.65 298.495ZM1888.91 298.336L1851.05 276.92L1738.07 276.789L1765.72 298.181L1888.91 298.336ZM1763.16 298.176L1735.58 276.784L1622.28 276.654L1639.64 298.017L1763.17 298.172L1763.16 298.176ZM1637.37 298.017L1620.08 276.654L1506.53 276.524L1513.61 297.863L1637.38 298.017H1637.37ZM1511.54 297.858L1504.52 276.519L1390.86 276.388L1387.66 297.703L1511.53 297.858H1511.54ZM1385.62 297.698L1388.89 276.384L1275.28 276.253L1261.8 297.539L1385.62 297.694V297.698ZM1259.62 297.539L1273.17 276.253L1159.76 276.123L1136 297.385L1259.62 297.539ZM1133.56 297.38L1157.39 276.118L1044.27 275.988L1010.23 297.225L1133.56 297.38ZM1007.46 297.22L1041.57 275.983L928.816 275.852L884.49 297.066L1007.46 297.22ZM881.336 297.061L925.724 275.852L813.369 275.722L758.765 296.906L881.336 297.061ZM2078.53 275.925L2020.1 254.455L1918.71 254.354L1966.92 275.799L2078.54 275.93L2078.53 275.925ZM1963.68 275.794L1915.53 254.354L1813.74 254.248L1851.68 275.664L1963.68 275.794ZM1848.83 275.664L1810.97 254.248L1708.8 254.141L1736.45 275.534L1848.84 275.664H1848.83ZM1733.96 275.534L1706.38 254.141L1603.89 254.035L1621.25 275.403L1733.96 275.534ZM1619.06 275.403L1601.76 254.04L1499.04 253.934L1506.12 275.273L1619.07 275.403H1619.06ZM1504.1 275.273L1497.08 253.934L1394.24 253.828L1391.04 275.142L1504.1 275.273H1504.1ZM1389.07 275.142L1392.34 253.828L1289.55 253.721L1276.07 275.007L1389.07 275.138V275.142ZM1273.96 275.012L1287.51 253.726L1184.92 253.62L1161.15 274.882L1273.96 275.012ZM1158.78 274.877L1182.61 253.615L1080.31 253.509L1046.27 274.747L1158.78 274.877ZM1043.56 274.747L1077.67 253.509L975.738 253.407L931.418 274.621L1043.56 274.751V274.747ZM928.326 274.611L972.715 253.403L871.176 253.301L816.572 274.486L928.32 274.616L928.326 274.611ZM2016.67 253.214L1958.23 231.745L1867.66 231.668L1915.88 253.113L2016.67 253.214ZM1912.71 253.108L1864.56 231.668L1773.59 231.59L1811.52 253.007L1912.72 253.108H1912.71ZM1808.74 253.002L1770.88 231.586L1679.53 231.508L1707.18 252.9L1808.75 253.002H1808.74ZM1704.76 252.896L1677.18 231.504L1585.5 231.426L1602.87 252.794L1704.76 252.896ZM1600.74 252.789L1583.44 231.421L1491.53 231.344L1498.61 252.683L1600.75 252.785L1600.74 252.789ZM1496.68 252.683L1489.66 231.344L1397.63 231.267L1394.43 252.582L1496.67 252.688L1496.68 252.683ZM1392.53 252.577L1395.79 231.262L1303.82 231.185L1290.34 252.471L1392.53 252.577ZM1288.3 252.471L1301.85 231.185L1210.08 231.108L1186.31 252.369L1288.3 252.471ZM1184.01 252.364L1207.84 231.103L1116.36 231.025L1082.32 252.263L1184.01 252.364ZM1079.68 252.258L1113.79 231.021L1022.68 230.943L978.358 252.157L1079.69 252.258H1079.68ZM975.329 252.152L1019.72 230.943L928.996 230.866L874.392 252.051L975.323 252.152H975.329ZM1954.82 230.489L1896.39 209.02L1816.62 208.967L1864.84 230.412L1954.82 230.489ZM1861.75 230.412L1813.6 208.967L1733.44 208.914L1771.37 230.33L1861.75 230.407L1861.75 230.412ZM1768.67 230.335L1730.8 208.919L1650.27 208.866L1677.92 230.258L1768.67 230.335H1768.67ZM1675.57 230.253L1647.99 208.861L1567.13 208.808L1584.49 230.176L1675.57 230.253ZM1582.43 230.176L1565.14 208.808L1484.04 208.754L1491.12 230.093L1582.44 230.171L1582.43 230.176ZM1489.25 230.093L1482.23 208.754L1401.03 208.701L1397.83 230.016L1489.25 230.093H1489.25ZM1395.99 230.016L1399.26 208.701L1318.1 208.648L1304.62 229.934L1395.99 230.011V230.016ZM1302.65 229.934L1316.2 208.648L1235.24 208.595L1211.48 229.857L1302.65 229.934ZM1209.25 229.857L1233.07 208.595L1152.41 208.542L1118.37 229.78L1209.25 229.857ZM1115.8 229.775L1149.9 208.537L1069.61 208.484L1025.29 229.693L1115.8 229.77V229.775ZM1022.33 229.693L1066.72 208.484L986.821 208.431L932.223 229.615L1022.34 229.693H1022.33ZM1892.98 207.765L1834.54 186.295L1765.59 186.271L1813.81 207.716L1892.98 207.769V207.765ZM1810.79 207.711L1762.63 186.266L1693.29 186.242L1731.22 207.658L1810.79 207.711ZM1728.59 207.658L1690.73 186.242L1621.01 186.218L1648.65 207.61L1728.59 207.663V207.658ZM1646.37 207.605L1618.79 186.213L1548.75 186.189L1566.12 207.557L1646.37 207.61V207.605ZM1564.13 207.552L1546.83 186.189L1476.55 186.165L1483.63 207.504L1564.13 207.557V207.552ZM1481.83 207.499L1474.81 186.16L1404.42 186.131L1401.22 207.446L1481.83 207.499ZM1399.45 207.446L1402.72 186.131L1332.38 186.107L1318.9 207.393L1399.45 207.446ZM1317 207.393L1330.55 186.107L1260.4 186.083L1236.64 207.344L1317 207.398V207.393ZM1234.48 207.34L1258.3 186.078L1188.46 186.054L1154.42 207.291L1234.48 207.344V207.34ZM1151.92 207.286L1186.03 186.049L1116.55 186.025L1072.23 207.233L1151.92 207.286ZM1069.34 207.233L1113.72 186.025L1044.64 186.001L990.042 207.185L1069.34 207.238V207.233ZM1831.14 185.04L1772.7 163.57H1714.57L1762.79 185.015L1831.14 185.04H1831.14ZM1759.83 185.015L1711.68 163.57H1653.15L1691.08 184.986L1759.83 185.011L1759.83 185.015ZM1688.52 184.991L1650.66 163.575H1591.75L1619.4 184.967L1688.52 184.991ZM1617.19 184.967L1589.61 163.575H1530.38L1547.75 184.943L1617.19 184.967ZM1545.83 184.943L1528.53 163.575H1469.07L1476.15 184.914L1545.83 184.938L1545.83 184.943ZM1474.42 184.919L1467.4 163.58H1407.82L1404.62 184.895L1474.42 184.919ZM1402.92 184.895L1406.19 163.58H1346.67L1333.19 184.866L1402.92 184.89V184.895ZM1331.35 184.871L1344.9 163.585H1285.58L1261.81 184.846L1331.35 184.871ZM1259.72 184.846L1283.54 163.585H1224.52L1190.47 184.822L1259.72 184.846ZM1188.04 184.822L1222.14 163.585H1163.48L1119.16 184.793L1188.04 184.817V184.822ZM1116.34 184.793L1160.72 163.585H1102.46L1047.86 184.769L1116.34 184.793Z" fill="url(#paint0_linear_1047_28620)"/>
<rect width="2918.13" height="562.835" transform="matrix(1 0 0 -1 0.712891 562.908)" fill="url(#paint1_radial_1047_28620)"/>
</g>
<defs>
<linearGradient id="paint0_linear_1047_28620" x1="850.592" y1="242.823" x2="1935.86" y2="242.823" gradientUnits="userSpaceOnUse">
<stop stop-color="#006DFF"/>
<stop offset="0.526042" stop-color="#4315F3"/>
<stop offset="1" stop-color="#FD37D1"/>
</linearGradient>
<radialGradient id="paint1_radial_1047_28620" cx="0" cy="0" r="1" gradientUnits="userSpaceOnUse" gradientTransform="translate(1459.07 281.417) rotate(90) scale(281.417 1459.07)">
<stop stop-color="#040A19" stop-opacity="0"/>
<stop offset="0.640625" stop-color="#040A19"/>
</radialGradient>
</defs>
</svg>
