<svg width="34" height="33" viewBox="0 0 34 33" fill="none" xmlns="http://www.w3.org/2000/svg">
<g clip-path="url(#clip0_1192_75502)">
<mask id="mask0_1192_75502" style="mask-type:luminance" maskUnits="userSpaceOnUse" x="0" y="0" width="34" height="33">
<path d="M27.4031 0.855713H6.67578C3.36207 0.855713 0.675781 3.542 0.675781 6.85571V26.8557C0.675781 30.1694 3.36207 32.8557 6.67578 32.8557H27.4031C30.7168 32.8557 33.4031 30.1694 33.4031 26.8557V6.85571C33.4031 3.542 30.7168 0.855713 27.4031 0.855713Z" fill="white"/>
</mask>
<g mask="url(#mask0_1192_75502)">
<path d="M27.4031 0.855713H6.67578C3.36207 0.855713 0.675781 3.542 0.675781 6.85571V26.8557C0.675781 30.1694 3.36207 32.8557 6.67578 32.8557H27.4031C30.7168 32.8557 33.4031 30.1694 33.4031 26.8557V6.85571C33.4031 3.542 30.7168 0.855713 27.4031 0.855713Z" fill="#151718"/>
<path d="M34.4677 -0.331543H0.0605469V32.8558H34.4677V-0.331543Z" fill="url(#paint0_linear_1192_75502)"/>
<path opacity="0.2" d="M12.9062 15.1875V17.8125C12.9062 17.9865 12.8371 18.1535 12.714 18.2765C12.591 18.3996 12.424 18.4688 12.25 18.4688H9.625C9.45095 18.4688 9.28403 18.3996 9.16096 18.2765C9.03789 18.1535 8.96875 17.9865 8.96875 17.8125V15.1875C8.96875 15.0135 9.03789 14.8465 9.16096 14.7235C9.28403 14.6004 9.45095 14.5312 9.625 14.5312H12.25C12.424 14.5312 12.591 14.6004 12.714 14.7235C12.8371 14.8465 12.9062 15.0135 12.9062 15.1875ZM24.7188 9.28125H20.7812C20.6072 9.28125 20.4403 9.35039 20.3172 9.47346C20.1941 9.59653 20.125 9.76345 20.125 9.9375V13.875C20.125 14.049 20.1941 14.216 20.3172 14.339C20.4403 14.4621 20.6072 14.5312 20.7812 14.5312H24.7188C24.8928 14.5312 25.0597 14.4621 25.1828 14.339C25.3059 14.216 25.375 14.049 25.375 13.875V9.9375C25.375 9.76345 25.3059 9.59653 25.1828 9.47346C25.0597 9.35039 24.8928 9.28125 24.7188 9.28125ZM24.7188 18.4688H20.7812C20.6072 18.4688 20.4403 18.5379 20.3172 18.661C20.1941 18.784 20.125 18.951 20.125 19.125V23.0625C20.125 23.2365 20.1941 23.4035 20.3172 23.5265C20.4403 23.6496 20.6072 23.7188 20.7812 23.7188H24.7188C24.8928 23.7188 25.0597 23.6496 25.1828 23.5265C25.3059 23.4035 25.375 23.2365 25.375 23.0625V19.125C25.375 18.951 25.3059 18.784 25.1828 18.661C25.0597 18.5379 24.8928 18.4688 24.7188 18.4688Z" fill="#9BA1A6"/>
<path d="M20.7812 15.1875H24.7188C25.0668 15.1875 25.4007 15.0492 25.6468 14.8031C25.893 14.5569 26.0312 14.2231 26.0312 13.875V9.9375C26.0312 9.5894 25.893 9.25556 25.6468 9.00942C25.4007 8.76328 25.0668 8.625 24.7188 8.625H20.7812C20.4332 8.625 20.0993 8.76328 19.8532 9.00942C19.607 9.25556 19.4688 9.5894 19.4688 9.9375V11.25H18.8125C18.1163 11.25 17.4486 11.5266 16.9563 12.0188C16.4641 12.5111 16.1875 13.1788 16.1875 13.875V15.8438H13.5625V15.1875C13.5625 14.8394 13.4242 14.5056 13.1781 14.2594C12.9319 14.0133 12.5981 13.875 12.25 13.875H9.625C9.2769 13.875 8.94306 14.0133 8.69692 14.2594C8.45078 14.5056 8.3125 14.8394 8.3125 15.1875V17.8125C8.3125 18.1606 8.45078 18.4944 8.69692 18.7406C8.94306 18.9867 9.2769 19.125 9.625 19.125H12.25C12.5981 19.125 12.9319 18.9867 13.1781 18.7406C13.4242 18.4944 13.5625 18.1606 13.5625 17.8125V17.1562H16.1875V19.125C16.1875 19.8212 16.4641 20.4889 16.9563 20.9812C17.4486 21.4734 18.1163 21.75 18.8125 21.75H19.4688V23.0625C19.4688 23.4106 19.607 23.7444 19.8532 23.9906C20.0993 24.2367 20.4332 24.375 20.7812 24.375H24.7188C25.0668 24.375 25.4007 24.2367 25.6468 23.9906C25.893 23.7444 26.0312 23.4106 26.0312 23.0625V19.125C26.0312 18.7769 25.893 18.4431 25.6468 18.1969C25.4007 17.9508 25.0668 17.8125 24.7188 17.8125H20.7812C20.4332 17.8125 20.0993 17.9508 19.8532 18.1969C19.607 18.4431 19.4688 18.7769 19.4688 19.125V20.4375H18.8125C18.4644 20.4375 18.1306 20.2992 17.8844 20.0531C17.6383 19.8069 17.5 19.4731 17.5 19.125V13.875C17.5 13.5269 17.6383 13.1931 17.8844 12.9469C18.1306 12.7008 18.4644 12.5625 18.8125 12.5625H19.4688V13.875C19.4688 14.2231 19.607 14.5569 19.8532 14.8031C20.0993 15.0492 20.4332 15.1875 20.7812 15.1875ZM12.25 17.8125H9.625V15.1875H12.25V17.8125ZM20.7812 19.125H24.7188V23.0625H20.7812V19.125ZM20.7812 9.9375H24.7188V13.875H20.7812V9.9375Z" fill="#9BA1A6"/>
</g>
<path d="M27.4031 1.35571H6.67578C3.63822 1.35571 1.17578 3.81815 1.17578 6.85571V26.8557C1.17578 29.8933 3.63822 32.3557 6.67578 32.3557H27.4031C30.4406 32.3557 32.9031 29.8933 32.9031 26.8557V6.85571C32.9031 3.81815 30.4406 1.35571 27.4031 1.35571Z" stroke="#313538"/>
</g>
<defs>
<linearGradient id="paint0_linear_1192_75502" x1="34.4678" y1="-2.57382" x2="4.39422" y2="31.9617" gradientUnits="userSpaceOnUse">
<stop stop-color="white" stop-opacity="0.15"/>
<stop offset="1" stop-color="white" stop-opacity="0"/>
</linearGradient>
<clipPath id="clip0_1192_75502">
<rect width="34" height="33" fill="white"/>
</clipPath>
</defs>
</svg>
