<svg width="450" height="348" viewBox="0 0 450 348" fill="none" xmlns="http://www.w3.org/2000/svg">
<g clip-path="url(#clip0_931_63632)">
<rect y="0.0673828" width="450" height="347.027" rx="10" fill="url(#paint0_radial_931_63632)" fill-opacity="0.15"/>
<g clip-path="url(#clip1_931_63632)">
<g filter="url(#filter0_b_931_63632)">
<rect x="130" y="36.0674" width="1440" height="900" rx="6" fill="url(#paint1_linear_931_63632)" fill-opacity="0.1"/>
<g clip-path="url(#clip2_931_63632)">
<rect x="139" y="48.0674" width="24" height="24" rx="3" fill="white" fill-opacity="0.2"/>
<path d="M148.497 64.4309H147.1L150.24 55.7036H151.762L154.902 64.4309H153.504L151.037 57.2888H150.969L148.497 64.4309ZM148.732 61.0133H153.266V62.1212H148.732V61.0133Z" fill="white"/>
<g clip-path="url(#clip3_931_63632)">
<path fill-rule="evenodd" clip-rule="evenodd" d="M151 93.8672C154.093 93.8672 156.6 95.2999 156.6 97.0672C156.6 98.8345 154.093 100.267 151 100.267C147.908 100.267 145.4 98.8345 145.4 97.0672C145.4 95.2999 147.908 93.8672 151 93.8672ZM155.556 100.372C155.926 100.16 156.284 99.9051 156.6 99.6094V101.067C156.6 102.834 154.093 104.267 151 104.267C147.908 104.267 145.4 102.834 145.4 101.067V99.6094C145.717 99.9051 146.074 100.16 146.445 100.372C147.671 101.072 149.284 101.467 151 101.467C152.717 101.467 154.33 101.072 155.556 100.372ZM145.4 103.609V105.067C145.4 106.834 147.908 108.267 151 108.267C154.093 108.267 156.6 106.834 156.6 105.067V103.609C156.284 103.905 155.926 104.16 155.556 104.372C154.33 105.072 152.717 105.467 151 105.467C149.284 105.467 147.671 105.072 146.445 104.372C146.074 104.16 145.717 103.905 145.4 103.609Z" fill="#9BA1A6"/>
</g>
<path fill-rule="evenodd" clip-rule="evenodd" d="M155.25 136.206C154.621 138.553 152.209 139.946 149.861 139.318C149.086 139.11 148.416 138.708 147.889 138.18L147.639 137.93L149.586 137.93C149.917 137.93 150.186 137.661 150.186 137.33C150.186 136.999 149.917 136.73 149.586 136.73L146.191 136.731C146.032 136.731 145.879 136.794 145.767 136.907C145.654 137.019 145.591 137.172 145.591 137.331L145.592 140.724C145.592 141.056 145.861 141.324 146.192 141.324C146.523 141.324 146.792 141.055 146.792 140.724L146.791 138.78L147.039 139.027C147.712 139.701 148.566 140.213 149.551 140.477C152.538 141.277 155.609 139.504 156.409 136.517C156.495 136.197 156.305 135.868 155.985 135.782C155.665 135.696 155.336 135.886 155.25 136.206ZM156.233 133.228C156.346 133.116 156.409 132.963 156.409 132.804L156.408 129.41C156.408 129.079 156.14 128.81 155.808 128.811C155.477 128.811 155.208 129.079 155.208 129.411L155.209 131.355L154.961 131.107C154.288 130.434 153.434 129.922 152.449 129.658C149.462 128.858 146.391 130.631 145.591 133.618C145.505 133.938 145.695 134.267 146.015 134.353C146.335 134.439 146.664 134.249 146.75 133.929C147.379 131.581 149.792 130.188 152.139 130.817C152.914 131.025 153.584 131.426 154.112 131.955L154.36 132.204L152.415 132.204C152.084 132.204 151.815 132.473 151.815 132.804C151.815 133.135 152.084 133.404 152.415 133.404H155.809C155.968 133.404 156.121 133.341 156.233 133.228Z" fill="#9BA1A6"/>
<path fill-rule="evenodd" clip-rule="evenodd" d="M191.6 53.6675C190.938 53.6675 190.4 54.2047 190.4 54.8675V65.2675C190.4 65.9302 190.938 66.4675 191.6 66.4675H200.4C201.063 66.4675 201.6 65.9302 201.6 65.2675V58.1645C201.6 57.8463 201.474 57.5411 201.249 57.316L197.952 54.019C197.727 53.7939 197.422 53.6675 197.103 53.6675H191.6ZM193.4 60.4675C193.069 60.4675 192.8 60.7361 192.8 61.0675C192.8 61.3989 193.069 61.6675 193.4 61.6675H198.6C198.932 61.6675 199.2 61.3989 199.2 61.0675C199.2 60.7361 198.932 60.4675 198.6 60.4675H193.4ZM193.4 62.8675C193.069 62.8675 192.8 63.1361 192.8 63.4675C192.8 63.7989 193.069 64.0675 193.4 64.0675H198.6C198.932 64.0675 199.2 63.7989 199.2 63.4675C199.2 63.1361 198.932 62.8675 198.6 62.8675H193.4Z" fill="#FF8B3E"/>
<g style="mix-blend-mode:overlay" opacity="0.6">
<rect x="212" y="54.0674" width="190.655" height="12" rx="3" fill="white"/>
</g>
<g clip-path="url(#clip4_931_63632)">
<rect width="40" height="34" transform="translate(172 85.0674)" fill="white" fill-opacity="0.05"/>
<rect x="172" y="119.067" width="40" height="1" fill="white" fill-opacity="0.15"/>
<path d="M193.183 132.34V141.067H192.126V133.448H192.075L189.944 134.863V133.789L192.126 132.34H193.183Z" fill="#787F85"/>
<rect x="172" y="152.067" width="40" height="1" fill="white" fill-opacity="0.15"/>
<path d="M189.271 174.067V173.3L192.151 170.147C192.489 169.778 192.768 169.457 192.987 169.184C193.205 168.908 193.367 168.65 193.472 168.408C193.58 168.164 193.634 167.908 193.634 167.641C193.634 167.334 193.56 167.069 193.413 166.844C193.268 166.62 193.069 166.447 192.816 166.324C192.563 166.202 192.279 166.141 191.964 166.141C191.629 166.141 191.336 166.211 191.086 166.35C190.839 166.486 190.647 166.678 190.511 166.925C190.377 167.172 190.31 167.462 190.31 167.795H189.305C189.305 167.283 189.423 166.834 189.658 166.448C189.894 166.062 190.215 165.761 190.621 165.545C191.031 165.329 191.489 165.221 191.998 165.221C192.509 165.221 192.962 165.329 193.357 165.545C193.752 165.761 194.062 166.052 194.286 166.418C194.511 166.785 194.623 167.192 194.623 167.641C194.623 167.962 194.565 168.276 194.448 168.583C194.335 168.887 194.136 169.226 193.852 169.601C193.57 169.974 193.18 170.428 192.68 170.965L190.719 173.062V173.13H194.776V174.067H189.271Z" fill="#787F85"/>
<rect x="172" y="185.067" width="40" height="1" fill="white" fill-opacity="0.15"/>
<path d="M192.032 207.187C191.469 207.187 190.968 207.09 190.528 206.897C190.09 206.704 189.742 206.435 189.484 206.092C189.228 205.745 189.089 205.343 189.066 204.886H190.14C190.163 205.167 190.259 205.41 190.43 205.614C190.6 205.816 190.823 205.972 191.099 206.083C191.374 206.194 191.68 206.249 192.015 206.249C192.39 206.249 192.722 206.184 193.012 206.053C193.302 205.922 193.529 205.741 193.694 205.508C193.859 205.275 193.941 205.005 193.941 204.698C193.941 204.377 193.862 204.094 193.702 203.85C193.543 203.603 193.31 203.41 193.004 203.271C192.697 203.131 192.322 203.062 191.879 203.062H191.18V202.124H191.879C192.225 202.124 192.529 202.062 192.79 201.937C193.055 201.812 193.261 201.636 193.408 201.408C193.559 201.181 193.634 200.914 193.634 200.607C193.634 200.312 193.569 200.055 193.438 199.836C193.308 199.617 193.123 199.447 192.884 199.324C192.648 199.202 192.37 199.141 192.049 199.141C191.748 199.141 191.464 199.197 191.197 199.307C190.933 199.415 190.717 199.573 190.549 199.78C190.381 199.985 190.29 200.232 190.276 200.522H189.254C189.271 200.065 189.408 199.664 189.667 199.32C189.925 198.974 190.263 198.704 190.681 198.511C191.102 198.317 191.563 198.221 192.066 198.221C192.606 198.221 193.069 198.33 193.455 198.549C193.842 198.765 194.138 199.05 194.346 199.405C194.553 199.761 194.657 200.144 194.657 200.556C194.657 201.047 194.528 201.467 194.269 201.813C194.013 202.16 193.665 202.4 193.225 202.533V202.601C193.776 202.692 194.207 202.927 194.516 203.305C194.826 203.68 194.981 204.144 194.981 204.698C194.981 205.172 194.852 205.599 194.593 205.976C194.337 206.351 193.988 206.647 193.545 206.863C193.102 207.079 192.597 207.187 192.032 207.187Z" fill="#787F85"/>
<rect x="172" y="218.067" width="40" height="1" fill="white" fill-opacity="0.15"/>
<path d="M188.849 238.278V237.408L192.684 231.34H193.315V232.687H192.889L189.991 237.272V237.34H195.156V238.278H188.849ZM192.957 240.067V238.013V237.609V231.34H193.963V240.067H192.957Z" fill="#787F85"/>
<rect x="172" y="251.067" width="40" height="1" fill="white" fill-opacity="0.15"/>
<path d="M191.98 273.187C191.48 273.187 191.03 273.087 190.629 272.888C190.229 272.69 189.908 272.417 189.666 272.07C189.425 271.724 189.293 271.329 189.27 270.886H190.293C190.333 271.28 190.512 271.607 190.83 271.866C191.151 272.121 191.534 272.249 191.98 272.249C192.338 272.249 192.656 272.165 192.935 271.998C193.216 271.83 193.436 271.6 193.595 271.307C193.757 271.012 193.838 270.678 193.838 270.306C193.838 269.925 193.754 269.586 193.587 269.288C193.422 268.986 193.195 268.749 192.905 268.576C192.615 268.403 192.284 268.315 191.912 268.312C191.645 268.309 191.371 268.35 191.09 268.435C190.808 268.518 190.577 268.624 190.395 268.755L189.406 268.636L189.935 264.34H194.469V265.278H190.821L190.514 267.851H190.566C190.744 267.709 190.969 267.592 191.239 267.498C191.509 267.404 191.79 267.357 192.083 267.357C192.617 267.357 193.093 267.485 193.51 267.741C193.931 267.994 194.26 268.34 194.499 268.78C194.74 269.221 194.861 269.724 194.861 270.289C194.861 270.846 194.736 271.343 194.486 271.78C194.239 272.215 193.898 272.559 193.463 272.812C193.029 273.062 192.534 273.187 191.98 273.187Z" fill="#787F85"/>
<rect x="172" y="284.067" width="40" height="1" fill="white" fill-opacity="0.15"/>
<path d="M192.057 306.187C191.699 306.181 191.341 306.113 190.983 305.982C190.625 305.851 190.298 305.631 190.003 305.322C189.708 305.009 189.47 304.587 189.291 304.056C189.112 303.522 189.023 302.851 189.023 302.045C189.023 301.272 189.095 300.587 189.24 299.991C189.385 299.391 189.595 298.887 189.871 298.478C190.146 298.066 190.479 297.753 190.868 297.54C191.26 297.327 191.702 297.221 192.193 297.221C192.682 297.221 193.117 297.319 193.497 297.515C193.881 297.708 194.193 297.978 194.435 298.324C194.676 298.671 194.833 299.07 194.904 299.522H193.864C193.767 299.13 193.58 298.805 193.301 298.546C193.023 298.288 192.654 298.158 192.193 298.158C191.517 298.158 190.985 298.452 190.595 299.04C190.209 299.628 190.014 300.454 190.012 301.516H190.08C190.239 301.275 190.428 301.069 190.646 300.898C190.868 300.725 191.112 300.592 191.379 300.498C191.646 300.404 191.929 300.357 192.227 300.357C192.727 300.357 193.185 300.482 193.6 300.732C194.014 300.979 194.347 301.322 194.597 301.759C194.847 302.194 194.972 302.692 194.972 303.255C194.972 303.795 194.851 304.289 194.61 304.738C194.368 305.184 194.029 305.539 193.591 305.803C193.156 306.065 192.645 306.192 192.057 306.187ZM192.057 305.249C192.415 305.249 192.736 305.16 193.02 304.981C193.307 304.802 193.533 304.562 193.698 304.261C193.865 303.959 193.949 303.624 193.949 303.255C193.949 302.894 193.868 302.566 193.706 302.271C193.547 301.972 193.327 301.735 193.046 301.559C192.767 301.383 192.449 301.295 192.091 301.295C191.821 301.295 191.57 301.349 191.337 301.457C191.104 301.562 190.899 301.707 190.723 301.891C190.55 302.076 190.414 302.288 190.314 302.526C190.215 302.762 190.165 303.011 190.165 303.272C190.165 303.619 190.246 303.942 190.408 304.244C190.573 304.545 190.797 304.788 191.081 304.972C191.368 305.157 191.693 305.249 192.057 305.249Z" fill="#787F85"/>
<rect x="172" y="317.067" width="40" height="1" fill="white" fill-opacity="0.15"/>
<path d="M189.748 339.067L193.652 331.346V331.278H189.152V330.34H194.743V331.329L190.856 339.067H189.748Z" fill="#787F85"/>
<rect x="212" y="85.0674" width="1" height="1668" fill="white" fill-opacity="0.15"/>
<rect width="299" height="34" transform="translate(213 85.0674)" fill="white" fill-opacity="0.05"/>
<g style="mix-blend-mode:overlay" opacity="0.6">
<rect x="225" y="96.0674" width="190.655" height="12" rx="3" fill="white"/>
</g>
<path d="M435.856 106.969C436.302 106.969 436.539 106.786 436.685 106.311L437.43 104.23H441.255L442 106.311C442.146 106.786 442.378 106.969 442.824 106.969C443.292 106.969 443.594 106.687 443.594 106.249C443.594 106.089 443.569 105.949 443.504 105.769L440.539 97.7627C440.337 97.2011 439.957 96.9248 439.348 96.9248C438.766 96.9248 438.384 97.1968 438.186 97.7572L435.206 105.803C435.142 105.975 435.116 106.121 435.116 106.263C435.116 106.699 435.398 106.969 435.856 106.969ZM437.814 102.985L439.329 98.6339H439.366L440.881 102.985H437.814ZM428.34 106.952C428.685 106.952 428.902 106.773 429.03 106.349L429.51 104.916H432.115L432.594 106.357C432.718 106.786 432.935 106.952 433.298 106.952C433.701 106.952 433.982 106.693 433.982 106.315C433.982 106.156 433.945 106.008 433.881 105.834L431.852 100.408C431.657 99.8822 431.318 99.6245 430.804 99.6245C430.308 99.6245 429.969 99.8749 429.776 100.408L427.75 105.834C427.687 105.993 427.656 106.161 427.656 106.315C427.656 106.707 427.918 106.952 428.34 106.952ZM429.832 103.872L430.735 101.078H430.874L431.784 103.872H429.832Z" fill="#787F85"/>
<path fill-rule="evenodd" clip-rule="evenodd" d="M449.84 99.835C450.079 99.6053 450.459 99.6128 450.689 99.8516L453.656 103.002L456.624 99.8516C456.853 99.6128 457.233 99.6053 457.472 99.835C457.711 100.065 457.718 100.444 457.489 100.683L454.089 104.283C453.976 104.401 453.819 104.467 453.656 104.467C453.493 104.467 453.337 104.401 453.224 104.283L449.824 100.683C449.594 100.444 449.602 100.065 449.84 99.835Z" fill="#787F85"/>
<rect x="213" y="119.067" width="299" height="1" fill="white" fill-opacity="0.15"/>
<g clip-path="url(#clip5_931_63632)">
<g style="mix-blend-mode:overlay" opacity="0.6">
<rect x="225" y="130.067" width="190.655" height="12" rx="3" fill="white"/>
</g>
</g>
<rect x="213" y="152.067" width="299" height="1" fill="white" fill-opacity="0.15"/>
<g clip-path="url(#clip6_931_63632)">
<g style="mix-blend-mode:overlay" opacity="0.6">
<rect x="225" y="163.067" width="35.999" height="12" rx="3" fill="white"/>
</g>
</g>
<rect x="213" y="185.067" width="299" height="1" fill="white" fill-opacity="0.15"/>
<g clip-path="url(#clip7_931_63632)">
<g style="mix-blend-mode:overlay" opacity="0.6">
<rect x="225" y="196.067" width="204.62" height="12" rx="3" fill="white"/>
</g>
</g>
<rect x="213" y="218.067" width="299" height="1" fill="white" fill-opacity="0.15"/>
<g clip-path="url(#clip8_931_63632)">
<g style="mix-blend-mode:overlay" opacity="0.6">
<rect x="225" y="229.067" width="190.655" height="12" rx="3" fill="white"/>
</g>
</g>
<rect x="213" y="251.067" width="299" height="1" fill="white" fill-opacity="0.15"/>
<g clip-path="url(#clip9_931_63632)">
<g style="mix-blend-mode:overlay" opacity="0.6">
<rect x="225" y="262.067" width="77.1445" height="12" rx="3" fill="white"/>
</g>
</g>
<rect x="213" y="284.067" width="299" height="1" fill="white" fill-opacity="0.15"/>
<g clip-path="url(#clip10_931_63632)">
<g style="mix-blend-mode:overlay" opacity="0.6">
<rect x="225" y="293.067" width="114.175" height="16" rx="3" fill="white"/>
</g>
</g>
<rect x="213" y="317.067" width="299" height="1" fill="white" fill-opacity="0.15"/>
<g clip-path="url(#clip11_931_63632)">
<g style="mix-blend-mode:overlay" opacity="0.6">
<rect x="225" y="326.067" width="114.175" height="16" rx="3" fill="white"/>
</g>
</g>
</g>
<path d="M172 85.0674H1570V83.0674H172V85.0674ZM1570 1754.07H172V1756.07H1570V1754.07Z" fill="white" fill-opacity="0.15" mask="url(#path-18-inside-2_931_63632)"/>
<path d="M173 936.067V36.0674H171V936.067H173Z" fill="white" fill-opacity="0.15" mask="url(#path-13-outside-1_931_63632)"/>
</g>
</g>
</g>
<rect x="130.5" y="36.5674" width="572" height="412" rx="5.5" stroke="url(#paint2_radial_931_63632)"/>
<path fill-rule="evenodd" clip-rule="evenodd" d="M69.9522 36.8813C71.4052 37.5142 71.5983 38.065 71.8167 42.1985L72.0046 45.7499L74.9586 44.0262C78.2657 42.0965 79.3566 41.9273 80.7512 43.1277C81.9197 44.1334 82.064 46.0538 81.0556 47.1693C80.0322 48.3011 69.5911 54.1394 68.5906 54.1394C68.0981 54.1394 67.2559 53.7617 66.7191 53.3001L65.743 52.4604L65.6341 45.9403C65.5107 38.5642 65.7069 37.6263 67.531 36.8635C68.8776 36.3006 68.6146 36.2985 69.9522 36.8813ZM59.1611 36.8781C60.9001 37.636 61.1039 38.6502 60.9818 45.9403L60.8729 52.4604L59.8968 53.3001C59.3601 53.7617 58.5179 54.1394 58.0253 54.1394C57.0249 54.1394 46.5838 48.3011 45.5604 47.1693C44.5519 46.0538 44.6963 44.1334 45.8648 43.1277C47.2593 41.9273 48.3502 42.0965 51.6574 44.0262L54.6114 45.7499L54.7854 42.1985C54.9809 38.2098 55.3291 37.3231 56.9171 36.7688C57.5237 36.5571 58.0358 36.3904 58.0549 36.3977C58.0744 36.4054 58.5718 36.6215 59.1611 36.8781ZM85.3204 51.8936C87.1268 52.6539 87.7119 54.7438 86.5278 56.2074C86.1928 56.6214 84.6128 57.7131 83.0168 58.634L80.1146 60.3079L83.0168 61.9643C86.2829 63.8286 87.1178 64.6663 87.1289 66.0902C87.1387 67.3609 85.4408 69.1096 84.1971 69.1096C83.2795 69.1096 73.357 63.6716 71.9176 62.3797C70.9467 61.5086 70.8549 59.4076 71.7437 58.4007C72.4185 57.6362 82.3618 51.919 83.5216 51.629C83.9251 51.528 84.7346 51.6471 85.3204 51.8936ZM43.126 51.6433C44.0479 51.8323 54.0517 57.5829 54.8514 58.3833C55.7722 59.3049 55.6888 61.4881 54.6984 62.3901C53.309 63.6553 43.3334 69.1096 42.4087 69.1096C41.2184 69.1096 39.4794 67.355 39.4794 66.1542C39.4794 64.606 40.0488 64.0121 43.3396 62.1276L46.509 60.3124L43.603 58.6361C42.0049 57.7142 40.4231 56.6214 40.0882 56.2074C38.4076 54.1304 40.4315 51.0901 43.126 51.6433ZM66.709 57.1944C68.2897 58.7886 69.0477 59.8236 69.0477 60.3879C69.0477 61.5984 64.6156 65.9763 63.3904 65.9763C62.1242 65.9763 57.5683 61.5956 57.5683 60.3782C57.5683 59.7769 58.28 58.8101 59.925 57.1763C63.0836 54.0395 63.5818 54.0406 66.709 57.1944ZM61.5735 60.0248C61.3666 60.5352 62.647 62.1468 63.2593 62.1468C63.7181 62.1468 65.2212 60.7305 65.2212 60.2981C65.2212 60.1143 64.8212 59.5924 64.3321 59.1388C63.4711 58.3405 63.4162 58.3335 62.6074 58.925C62.1482 59.261 61.6828 59.7557 61.5735 60.0248ZM75.4794 69.8999C81.2939 73.2595 82.2164 74.1413 81.7718 75.9144C81.6567 76.3736 81.2215 77.0672 80.8051 77.4553C79.5702 78.607 77.9238 78.3647 74.9614 76.5947C73.5265 75.7372 72.2491 75.034 72.1232 75.0319C71.9973 75.0298 71.8407 76.687 71.7753 78.7142C71.6612 82.2555 71.6184 82.4338 70.6806 83.2401C69.4335 84.3131 67.9662 84.3131 66.7191 83.2404L65.743 82.4007L65.6335 76.0433C65.5141 69.1145 65.5969 68.3855 66.6214 67.3602C67.9857 65.9948 69.4443 66.4133 75.4794 69.8999ZM59.5758 66.9055C60.7787 67.3901 61.0469 68.9676 61.0469 75.5597V82.0446L60.0301 83.0622C58.7555 84.3374 57.2854 84.4015 55.9354 83.2401C54.9975 82.4338 54.9548 82.2555 54.8407 78.7142C54.7753 76.687 54.6187 75.0298 54.4928 75.0319C54.3669 75.034 53.0895 75.7372 51.6546 76.5947C48.5391 78.4562 47.0019 78.6345 45.7319 77.2816C44.8052 76.2943 44.6194 74.3945 45.3621 73.499C45.6126 73.1965 48.2925 71.5369 51.3168 69.8108C56.6697 66.7558 58.0222 66.2803 59.5758 66.9055Z" fill="#29B5E8"/>
<path d="M49.86 159.714L39.4185 141.629C38.8605 140.663 38.8605 139.472 39.4185 138.506L49.86 120.421C50.4172 119.456 51.4462 118.861 52.56 118.859H73.4528C74.5628 118.865 75.5865 119.459 76.1415 120.421L86.5815 138.506C87.1395 139.472 87.1395 140.663 86.5815 141.629L76.14 159.714C75.5828 160.679 74.5537 161.274 73.44 161.276H52.5525C51.4402 161.272 50.415 160.677 49.8577 159.714H49.86Z" fill="#4386FA"/>
<path opacity="0.1" d="M69.5234 134.243C69.5234 134.243 72.4259 141.205 68.4689 145.152C64.5119 149.098 57.3066 146.572 57.3066 146.572L71.9631 161.269H73.4511C74.5656 161.268 75.5946 160.672 76.1511 159.708L83.0631 147.739L69.5234 134.243Z" fill="black"/>
<path d="M72.9507 148.49L69.7504 145.282C69.7156 145.246 69.6757 145.216 69.6319 145.192C70.9932 143.439 71.6347 141.232 71.4258 139.022C71.2169 136.812 70.1734 134.765 68.5077 133.298C66.842 131.831 64.6796 131.054 62.4609 131.125C60.2423 131.197 58.1344 132.111 56.5667 133.683C54.999 135.255 54.0895 137.365 54.0234 139.583C53.9573 141.802 54.7397 143.963 56.211 145.625C57.6824 147.287 59.7321 148.325 61.9426 148.529C64.153 148.732 66.3579 148.085 68.1079 146.72C68.1308 146.761 68.1593 146.799 68.1927 146.832L71.4004 150.04C71.4946 150.134 71.6224 150.187 71.7555 150.187C71.8887 150.187 72.0165 150.134 72.1107 150.04L72.9507 149.2C73.0448 149.106 73.0977 148.978 73.0977 148.845C73.0977 148.712 73.0448 148.584 72.9507 148.49ZM62.7304 146.415C61.4324 146.415 60.1635 146.031 59.0842 145.31C58.0049 144.589 57.1636 143.564 56.6669 142.365C56.1701 141.165 56.04 139.846 56.2932 138.573C56.5464 137.3 57.1715 136.13 58.0893 135.212C59.0071 134.295 60.1765 133.67 61.4496 133.416C62.7226 133.163 64.0422 133.293 65.2414 133.79C66.4405 134.287 67.4655 135.128 68.1865 136.207C68.9075 137.287 69.2923 138.556 69.2922 139.854C69.292 141.594 68.6006 143.263 67.3701 144.493C66.1395 145.724 64.4706 146.415 62.7304 146.415ZM58.5357 139.503V142.215C58.9534 142.953 59.5579 143.568 60.2892 143.997V139.487L58.5357 139.503ZM61.8169 137.255V144.584C62.3965 144.691 62.9908 144.691 63.5704 144.584V137.255H61.8169ZM66.8899 142.209V140.603H65.1379V143.978C65.8681 143.55 66.4729 142.937 66.8914 142.202L66.8899 142.209Z" fill="white"/>
<g clip-path="url(#clip12_931_63632)">
<path opacity="0.2" d="M86.8142 225.345C86.5264 224.484 85.7725 223.884 84.7976 223.74C84.3379 223.673 83.8114 223.702 83.1884 223.828C82.1024 224.05 81.2968 224.134 80.7088 224.15C82.9281 220.449 84.7327 216.229 85.7716 212.256C87.4515 205.832 86.5538 202.906 85.5048 201.582C82.7286 198.078 78.6783 196.196 73.792 196.139C71.1853 196.107 68.897 196.615 67.7032 196.981C66.5918 196.787 65.3967 196.679 64.1428 196.659C61.7922 196.622 59.7154 197.128 57.9408 198.168C56.9584 197.84 55.3816 197.378 53.5607 197.082C49.278 196.388 45.8264 196.929 43.3016 198.691C40.2444 200.824 38.8272 204.53 39.0893 209.706C39.1725 211.349 40.1032 216.349 41.5687 221.091C42.4109 223.816 43.3089 226.08 44.2379 227.819C45.5554 230.284 46.9652 231.736 48.5478 232.258C49.4348 232.55 51.0465 232.754 52.7415 231.36C52.9564 231.617 53.2431 231.872 53.6235 232.109C54.1067 232.41 54.6974 232.656 55.2875 232.802C57.4138 233.327 59.4055 233.196 61.1047 232.46C61.1152 232.758 61.1233 233.043 61.13 233.29C61.1413 233.689 61.1525 234.081 61.1673 234.447C61.268 236.924 61.4386 238.85 61.9441 240.197C61.9719 240.271 62.0092 240.384 62.0485 240.504C62.3007 241.266 62.7224 242.543 63.7952 243.543C64.9061 244.579 66.2498 244.896 67.4805 244.896C68.0977 244.896 68.6866 244.816 69.2031 244.707C71.0443 244.317 73.1354 243.723 74.648 241.596C76.0782 239.585 76.7734 236.556 76.8992 231.783C76.9155 231.648 76.9305 231.519 76.945 231.396L76.975 231.144L77.3119 231.173L77.3987 231.179C79.274 231.264 81.567 230.871 82.9752 230.225C84.0879 229.715 87.6538 227.855 86.8142 225.345Z" fill="black"/>
<path d="M84.1393 225.831C78.5633 226.967 78.1799 225.102 78.1799 225.102C84.0671 216.474 86.5283 205.522 84.4046 202.841C78.6104 195.529 68.5806 198.987 68.4132 199.077L68.3594 199.086C67.2577 198.861 66.0249 198.726 64.6392 198.704C62.1163 198.663 60.2024 199.357 58.7501 200.445C58.7501 200.445 40.858 193.164 41.6903 209.601C41.8673 213.098 46.7645 236.059 52.6055 229.124C54.7405 226.588 56.8034 224.443 56.8034 224.443C57.8279 225.116 59.0544 225.458 60.3403 225.335L60.4402 225.252C60.4091 225.566 60.4233 225.874 60.4801 226.239C58.9753 227.9 59.4176 228.191 56.4095 228.803C53.3656 229.422 55.1537 230.525 56.3212 230.814C57.7366 231.163 61.0109 231.658 63.2233 228.599L63.1352 228.948C63.7246 229.415 64.1386 231.982 64.0692 234.31C63.9999 236.637 63.9536 238.235 64.418 239.483C64.8828 240.732 65.3457 243.54 69.3002 242.703C72.6043 242.004 74.3167 240.191 74.555 237.168C74.7239 235.019 75.1066 235.336 75.1306 233.415L75.4375 232.505C75.7913 229.592 75.4937 228.652 77.5293 229.089L78.0243 229.132C79.5223 229.199 81.4835 228.894 82.6345 228.365C85.1127 227.229 86.5826 225.333 84.1389 225.831H84.1393Z" fill="#336791"/>
<path d="M59.2644 211.165C58.762 211.096 58.3069 211.16 58.0767 211.332C57.9473 211.429 57.9072 211.541 57.8963 211.618C57.8674 211.823 58.0126 212.049 58.1018 212.166C58.3542 212.496 58.7228 212.723 59.0876 212.773C59.1405 212.781 59.1932 212.784 59.2455 212.784C59.8539 212.784 60.4072 212.316 60.4559 211.971C60.5169 211.538 59.8811 211.25 59.2644 211.165" fill="white"/>
<path d="M75.9109 211.179C75.8629 210.84 75.2521 210.743 74.6724 210.823C74.0934 210.902 73.532 211.16 73.5789 211.5C73.6164 211.764 74.0996 212.216 74.6714 212.216C74.7198 212.216 74.7685 212.212 74.8177 212.206C75.1994 212.153 75.4795 211.914 75.6126 211.776C75.8151 211.566 75.9325 211.331 75.9109 211.179Z" fill="white"/>
<path d="M85.4614 225.703C85.2488 225.068 84.5644 224.863 83.4275 225.095C80.0517 225.783 78.8428 225.307 78.4459 225.018C81.0698 221.07 83.2284 216.297 84.3929 211.844C84.9445 209.735 85.2491 207.776 85.2741 206.18C85.3016 204.427 84.9994 203.139 84.3762 202.353C81.8634 199.181 78.1755 197.48 73.7114 197.434C70.6424 197.4 68.0494 198.175 67.5467 198.394C66.4882 198.134 65.3342 197.974 64.0778 197.954C61.7739 197.917 59.7824 198.461 58.1336 199.572C57.4174 199.309 55.5665 198.681 53.3029 198.321C49.3897 197.699 46.28 198.17 44.0608 199.723C41.4129 201.576 40.1905 204.888 40.4273 209.567C40.507 211.142 41.4152 215.985 42.8483 220.623C44.7349 226.727 46.7856 230.183 48.9432 230.894C49.1958 230.977 49.487 231.035 49.8081 231.035C50.5952 231.035 51.5602 230.685 52.5642 229.492C53.7888 228.041 55.0556 226.626 56.363 225.247C57.2112 225.696 58.143 225.948 59.096 225.973C59.0979 225.997 59.1003 226.022 59.1026 226.046C58.9385 226.24 58.7779 226.436 58.6207 226.634C57.9604 227.462 57.823 227.635 55.6974 228.067C55.0927 228.19 53.4869 228.517 53.4633 229.629C53.4378 230.844 55.3616 231.354 55.5808 231.408C56.3446 231.597 57.0805 231.69 57.7823 231.69C59.489 231.69 60.991 231.136 62.1913 230.064C62.1543 234.395 62.3371 238.662 62.8636 239.962C63.2948 241.027 64.3482 243.628 67.6754 243.628C68.1636 243.628 68.7009 243.572 69.2921 243.447C72.7646 242.711 74.2725 241.196 74.8558 237.854C75.168 236.067 75.7037 231.802 75.9556 229.515C76.4874 229.679 77.1719 229.754 77.9119 229.753C79.4553 229.753 81.2363 229.429 82.3532 228.917C83.6079 228.342 85.872 226.93 85.4614 225.703ZM77.192 210.243C77.1805 210.919 77.0864 211.532 76.9867 212.172C76.8792 212.86 76.7682 213.572 76.7403 214.436C76.7127 215.276 76.819 216.151 76.9218 216.996C77.1295 218.703 77.3427 220.461 76.5176 222.196C76.3805 221.956 76.2584 221.708 76.1519 221.453C76.0494 221.208 75.8267 220.813 75.5182 220.267C74.3185 218.142 71.509 213.165 72.9472 211.135C73.3756 210.53 74.4629 209.909 77.192 210.243ZM73.8839 198.801C77.8838 198.889 81.0479 200.366 83.288 203.194C85.0062 205.363 83.1142 215.231 77.6371 223.744C77.582 223.675 77.5266 223.606 77.4709 223.537L77.4016 223.451C78.8169 221.143 78.5402 218.858 78.2938 216.833C78.1926 216.002 78.097 215.217 78.1213 214.48C78.1465 213.698 78.2511 213.028 78.3523 212.38C78.4766 211.581 78.6032 210.754 78.5683 209.78C78.5944 209.678 78.6049 209.557 78.5912 209.414C78.5021 208.48 77.4222 205.684 75.2211 203.153C74.017 201.769 72.2612 200.219 69.8637 199.175C70.8949 198.964 72.305 198.767 73.8839 198.801ZM51.5017 228.62C50.3955 229.934 49.6317 229.682 49.3805 229.599C47.7437 229.06 45.8444 225.643 44.1699 220.224C42.721 215.536 41.8743 210.821 41.8072 209.499C41.5957 205.318 42.6218 202.404 44.8573 200.838C48.4953 198.29 54.4766 199.815 56.8801 200.589C56.8456 200.622 56.8096 200.654 56.7754 200.688C52.8314 204.622 52.925 211.344 52.9347 211.755C52.9343 211.913 52.9478 212.138 52.9662 212.446C53.0341 213.577 53.1605 215.681 52.823 218.064C52.5095 220.278 53.2006 222.445 54.7187 224.01C54.8745 224.17 55.0382 224.323 55.2093 224.467C54.5336 225.182 53.065 226.762 51.5017 228.62ZM55.7163 223.066C54.4928 221.804 53.937 220.05 54.1915 218.253C54.5477 215.736 54.4163 213.543 54.3456 212.366C54.3356 212.201 54.3268 212.056 54.3218 211.942C54.8979 211.438 57.568 210.025 59.4721 210.456C60.3409 210.652 60.8704 211.237 61.0905 212.242C62.2297 217.446 61.2413 219.615 60.4471 221.358C60.2834 221.717 60.1287 222.057 59.9967 222.408L59.8943 222.679C59.6352 223.366 59.3941 224.004 59.2447 224.61C57.9439 224.606 56.6785 224.057 55.7163 223.065V223.066ZM55.916 230.084C55.5361 229.99 55.1945 229.828 54.9941 229.693C55.1615 229.615 55.4595 229.509 55.9762 229.404C58.4767 228.895 58.863 228.536 59.7063 227.479C59.8996 227.236 60.1188 226.961 60.4223 226.627L60.4227 226.626C60.8747 226.126 61.0815 226.211 61.4565 226.365C61.7604 226.489 62.0565 226.865 62.1765 227.279C62.2333 227.475 62.297 227.846 62.0883 228.135C60.3267 230.571 57.7596 230.54 55.916 230.084ZM69.0026 242.112C65.9435 242.76 64.8604 241.218 64.1466 239.456C63.6859 238.318 63.4595 233.187 63.6201 227.521C63.6222 227.446 63.6113 227.373 63.5903 227.304C63.5715 227.169 63.543 227.035 63.5048 226.904C63.266 226.079 62.6838 225.39 61.9854 225.104C61.7079 224.99 61.1987 224.782 60.5867 224.937C60.7172 224.406 60.9435 223.806 61.189 223.156L61.2919 222.883C61.4078 222.575 61.5532 222.256 61.707 221.918C62.5381 220.095 63.6764 217.597 62.441 211.954C61.9783 209.84 60.433 208.808 58.0905 209.047C56.6862 209.191 55.4013 209.751 54.7605 210.071C54.6227 210.14 54.4967 210.207 54.379 210.272C54.5578 208.142 55.2335 204.162 57.7613 201.644C59.3529 200.059 61.4724 199.276 64.0549 199.318C69.1434 199.4 72.4065 201.98 74.248 204.129C75.8349 205.981 76.6942 207.847 77.0371 208.853C74.4582 208.594 72.7042 209.097 71.8151 210.352C69.8808 213.084 72.8733 218.384 74.3115 220.932C74.5753 221.399 74.803 221.802 74.8746 221.974C75.3429 223.095 75.9493 223.843 76.3919 224.39C76.5277 224.557 76.6593 224.719 76.7594 224.861C75.9783 225.084 74.5753 225.598 74.7032 228.166C74.6001 229.455 73.8668 235.49 73.4943 237.622C73.0025 240.438 71.9531 241.487 69.0026 242.112V242.112ZM81.7714 227.68C80.9727 228.046 79.6361 228.32 78.3664 228.379C76.964 228.444 76.25 228.224 76.082 228.089C76.0033 226.488 76.6064 226.321 77.2448 226.144C77.3451 226.116 77.443 226.089 77.5375 226.056C77.5962 226.104 77.6605 226.15 77.731 226.196C78.8582 226.931 80.8686 227.01 83.707 226.432L83.7382 226.426C83.3553 226.779 82.7002 227.254 81.7714 227.68Z" fill="white"/>
</g>
<rect y="347.094" width="347.026" height="461.656" transform="rotate(-90 0 347.094)" fill="url(#paint3_radial_931_63632)"/>
</g>
<rect x="0.5" y="0.567383" width="449" height="346.027" rx="9.5" stroke="url(#paint4_radial_931_63632)" stroke-opacity="0.2"/>
<defs>
<filter id="filter0_b_931_63632" x="110" y="16.0674" width="1480" height="940" filterUnits="userSpaceOnUse" color-interpolation-filters="sRGB">
<feFlood flood-opacity="0" result="BackgroundImageFix"/>
<feGaussianBlur in="BackgroundImageFix" stdDeviation="10"/>
<feComposite in2="SourceAlpha" operator="in" result="effect1_backgroundBlur_931_63632"/>
<feBlend mode="normal" in="SourceGraphic" in2="effect1_backgroundBlur_931_63632" result="shape"/>
</filter>
<radialGradient id="paint0_radial_931_63632" cx="0" cy="0" r="1" gradientUnits="userSpaceOnUse" gradientTransform="translate(91.2457 95.9865) rotate(49.6641) scale(389.723 504.467)">
<stop stop-color="white"/>
<stop offset="1" stop-color="white" stop-opacity="0"/>
</radialGradient>
<linearGradient id="paint1_linear_931_63632" x1="850" y1="36.0674" x2="850" y2="936.067" gradientUnits="userSpaceOnUse">
<stop stop-color="white"/>
<stop offset="1" stop-color="white" stop-opacity="0"/>
</linearGradient>
<radialGradient id="paint2_radial_931_63632" cx="0" cy="0" r="1" gradientUnits="userSpaceOnUse" gradientTransform="translate(130 42.0157) rotate(35.6944) scale(683.2 947.877)">
<stop stop-color="white" stop-opacity="0.3"/>
<stop offset="0.758067" stop-color="white" stop-opacity="0"/>
</radialGradient>
<radialGradient id="paint3_radial_931_63632" cx="0" cy="0" r="1" gradientUnits="userSpaceOnUse" gradientTransform="translate(89.3123 771.516) rotate(-57.1568) scale(495.9 3407.8)">
<stop offset="0.0677083" stop-color="#060C19"/>
<stop offset="1" stop-color="#060C1A" stop-opacity="0"/>
</radialGradient>
<radialGradient id="paint4_radial_931_63632" cx="0" cy="0" r="1" gradientUnits="userSpaceOnUse" gradientTransform="translate(62.1588 16.5308) rotate(52.5128) scale(416.595 533.16)">
<stop stop-color="white"/>
<stop offset="1" stop-color="white" stop-opacity="0"/>
</radialGradient>
<clipPath id="clip0_931_63632">
<rect y="0.0673828" width="450" height="347.027" rx="10" fill="white"/>
</clipPath>
<clipPath id="clip1_931_63632">
<rect x="130" y="36.0674" width="573" height="413" rx="6" fill="white"/>
</clipPath>
<clipPath id="clip2_931_63632">
<rect x="130" y="36.0674" width="1440" height="900" rx="6" fill="white"/>
</clipPath>
<clipPath id="clip3_931_63632">
<rect width="16" height="16" fill="white" transform="translate(143 93.0674)"/>
</clipPath>
<clipPath id="clip4_931_63632">
<path d="M172 84.0674H1570V1755.07H172V84.0674Z" fill="white"/>
</clipPath>
<clipPath id="clip5_931_63632">
<rect width="299" height="12" fill="white" transform="translate(213 130.067)"/>
</clipPath>
<clipPath id="clip6_931_63632">
<rect width="299" height="12" fill="white" transform="translate(213 163.067)"/>
</clipPath>
<clipPath id="clip7_931_63632">
<rect width="299" height="12" fill="white" transform="translate(213 196.067)"/>
</clipPath>
<clipPath id="clip8_931_63632">
<rect width="299" height="12" fill="white" transform="translate(213 229.067)"/>
</clipPath>
<clipPath id="clip9_931_63632">
<rect width="299" height="12" fill="white" transform="translate(213 262.067)"/>
</clipPath>
<clipPath id="clip10_931_63632">
<rect width="299" height="16" fill="white" transform="translate(213 293.067)"/>
</clipPath>
<clipPath id="clip11_931_63632">
<rect width="299" height="16" fill="white" transform="translate(213 326.067)"/>
</clipPath>
<clipPath id="clip12_931_63632">
<rect width="48" height="48.8889" fill="white" transform="translate(39 196.067)"/>
</clipPath>
</defs>
</svg>
