<svg width="995" height="773" viewBox="0 0 995 773" fill="none" xmlns="http://www.w3.org/2000/svg">
<g filter="url(#filter0_d_1059_31260)">
<path fill-rule="evenodd" clip-rule="evenodd" d="M535.84 596.636V740.907L74.3662 622.97V480.234L533.701 597.133L535.84 596.636Z" fill="url(#paint0_linear_1059_31260)"/>
<path fill-rule="evenodd" clip-rule="evenodd" d="M535.833 596.633V740.877L820.232 668.733C839.38 663.693 885.971 646.311 893.353 622.648C894.56 618.779 894.373 615.78 894.373 611.876V478.669C892.865 500.691 856.469 522.767 785.966 539.013L535.833 596.633Z" fill="url(#paint1_linear_1059_31260)"/>
<path fill-rule="evenodd" clip-rule="evenodd" d="M74.3623 483.398L323.652 424.491C460.763 392.088 676.966 392.061 804.104 424.429C931.242 456.788 923.257 510.548 785.977 542.18L533.697 600.306L74.3623 483.398Z" fill="url(#paint2_linear_1059_31260)"/>
<g style="mix-blend-mode:overlay" filter="url(#filter1_f_1059_31260)">
<path fill-rule="evenodd" clip-rule="evenodd" d="M795.194 432.311C676 401.965 472.015 401.945 343.089 432.414L148.099 478.49L540.637 578.397L778.182 523.666C810.355 516.253 834.258 507.688 850.236 498.849C866.834 489.668 872.263 481.683 873.025 476.674C873.629 472.71 871.73 465.934 858.59 457.091C845.798 448.482 824.94 439.882 795.194 432.311ZM338.192 411.691C470.206 380.493 677.683 380.421 800.448 411.676C831.192 419.501 854.752 428.842 870.479 439.426C885.857 449.775 896.578 463.443 894.076 479.879C891.732 495.271 878.329 507.643 860.543 517.482C842.138 527.663 816.104 536.779 782.963 544.416L540.387 600.305L100.8 488.424L100.977 467.745L338.192 411.691C338.192 411.691 338.192 411.691 338.192 411.691Z" fill="white"/>
</g>
<g style="mix-blend-mode:overlay" filter="url(#filter2_f_1059_31260)">
<ellipse cx="497.62" cy="467.54" rx="359.273" ry="82.3332" fill="white"/>
</g>
<path fill-rule="evenodd" clip-rule="evenodd" d="M535.834 399.65V543.921L74.3604 425.984V283.248L533.695 400.146L535.834 399.65Z" fill="url(#paint3_linear_1059_31260)"/>
<path fill-rule="evenodd" clip-rule="evenodd" d="M535.833 399.677V543.922L820.232 471.768C839.38 466.729 885.971 449.347 893.353 425.683C894.56 421.815 894.373 418.825 894.373 414.912V281.705C892.865 303.727 856.469 325.802 785.966 342.048L535.833 399.677Z" fill="url(#paint4_linear_1059_31260)"/>
<path fill-rule="evenodd" clip-rule="evenodd" d="M74.3604 283.263L323.65 224.356C460.761 191.953 676.964 191.926 804.102 224.294C931.241 256.653 923.255 310.414 785.975 342.045L533.695 400.171L74.3604 283.263Z" fill="url(#paint5_linear_1059_31260)"/>
<g style="mix-blend-mode:overlay" filter="url(#filter3_f_1059_31260)">
<path fill-rule="evenodd" clip-rule="evenodd" d="M795.194 236.886C676 206.541 472.015 206.52 343.089 236.989L148.099 283.065L540.637 382.972L778.182 328.241C810.355 320.828 834.258 312.263 850.236 303.424C866.834 294.243 872.263 286.258 873.025 281.249C873.629 277.285 871.73 270.509 858.59 261.666C845.798 253.058 824.94 244.457 795.194 236.886ZM338.192 216.267C470.206 185.068 677.683 184.997 800.448 216.251C831.192 224.076 854.752 233.417 870.479 244.001C885.857 254.35 896.578 268.019 894.076 284.454C891.732 299.847 878.329 312.218 860.543 322.057C842.138 332.238 816.104 341.355 782.963 348.991L540.387 404.881L100.8 292.999L100.977 272.32L338.192 216.267C338.192 216.267 338.192 216.267 338.192 216.267Z" fill="white"/>
</g>
<g style="mix-blend-mode:overlay" filter="url(#filter4_f_1059_31260)">
<ellipse cx="497.621" cy="281.704" rx="396.763" ry="90.9247" fill="white"/>
</g>
<path fill-rule="evenodd" clip-rule="evenodd" d="M535.834 200.01V344.281L74.3604 226.344V83.6079L533.695 200.507L535.834 200.01Z" fill="url(#paint6_linear_1059_31260)"/>
<path fill-rule="evenodd" clip-rule="evenodd" d="M535.833 200.037V344.282L820.232 272.129C839.38 267.089 885.971 249.707 893.353 226.044C894.56 222.175 894.373 219.185 894.373 215.272V82.0649C892.865 104.087 856.469 126.163 785.966 142.409L535.833 200.037Z" fill="url(#paint7_linear_1059_31260)"/>
<path fill-rule="evenodd" clip-rule="evenodd" d="M74.3604 83.6232L323.65 24.7167C460.761 -7.68666 676.964 -7.71318 804.102 24.6547C931.241 57.0138 923.255 110.774 785.975 142.405L533.695 200.531L74.3604 83.6232Z" fill="url(#paint8_linear_1059_31260)"/>
</g>
<defs>
<filter id="filter0_d_1059_31260" x="62.3604" y="0.396484" width="844.079" height="772.511" filterUnits="userSpaceOnUse" color-interpolation-filters="sRGB">
<feFlood flood-opacity="0" result="BackgroundImageFix"/>
<feColorMatrix in="SourceAlpha" type="matrix" values="0 0 0 0 0 0 0 0 0 0 0 0 0 0 0 0 0 0 127 0" result="hardAlpha"/>
<feOffset dy="20"/>
<feGaussianBlur stdDeviation="6"/>
<feComposite in2="hardAlpha" operator="out"/>
<feColorMatrix type="matrix" values="0 0 0 0 0.0295139 0 0 0 0 0.0615575 0 0 0 0 0.141667 0 0 0 0.7 0"/>
<feBlend mode="normal" in2="BackgroundImageFix" result="effect1_dropShadow_1059_31260"/>
<feBlend mode="normal" in="SourceGraphic" in2="effect1_dropShadow_1059_31260" result="shape"/>
</filter>
<filter id="filter1_f_1059_31260" x="70.7998" y="358.264" width="853.639" height="272.042" filterUnits="userSpaceOnUse" color-interpolation-filters="sRGB">
<feFlood flood-opacity="0" result="BackgroundImageFix"/>
<feBlend mode="normal" in="SourceGraphic" in2="BackgroundImageFix" result="shape"/>
<feGaussianBlur stdDeviation="15" result="effect1_foregroundBlur_1059_31260"/>
</filter>
<filter id="filter2_f_1059_31260" x="38.3467" y="285.207" width="918.546" height="364.666" filterUnits="userSpaceOnUse" color-interpolation-filters="sRGB">
<feFlood flood-opacity="0" result="BackgroundImageFix"/>
<feBlend mode="normal" in="SourceGraphic" in2="BackgroundImageFix" result="shape"/>
<feGaussianBlur stdDeviation="50" result="effect1_foregroundBlur_1059_31260"/>
</filter>
<filter id="filter3_f_1059_31260" x="70.7998" y="162.839" width="853.639" height="272.042" filterUnits="userSpaceOnUse" color-interpolation-filters="sRGB">
<feFlood flood-opacity="0" result="BackgroundImageFix"/>
<feBlend mode="normal" in="SourceGraphic" in2="BackgroundImageFix" result="shape"/>
<feGaussianBlur stdDeviation="15" result="effect1_foregroundBlur_1059_31260"/>
</filter>
<filter id="filter4_f_1059_31260" x="0.857422" y="90.7798" width="993.526" height="381.849" filterUnits="userSpaceOnUse" color-interpolation-filters="sRGB">
<feFlood flood-opacity="0" result="BackgroundImageFix"/>
<feBlend mode="normal" in="SourceGraphic" in2="BackgroundImageFix" result="shape"/>
<feGaussianBlur stdDeviation="50" result="effect1_foregroundBlur_1059_31260"/>
</filter>
<linearGradient id="paint0_linear_1059_31260" x1="191.586" y1="317.309" x2="583.942" y2="486.82" gradientUnits="userSpaceOnUse">
<stop stop-color="#020E1E"/>
<stop offset="1" stop-color="#0D233C"/>
</linearGradient>
<linearGradient id="paint1_linear_1059_31260" x1="894.382" y1="509.024" x2="577.935" y2="721.006" gradientUnits="userSpaceOnUse">
<stop stop-color="#020E1E"/>
<stop offset="1" stop-color="#0D233C"/>
</linearGradient>
<linearGradient id="paint2_linear_1059_31260" x1="192.956" y1="467.223" x2="854.188" y2="484.42" gradientUnits="userSpaceOnUse">
<stop stop-color="#0E00FF"/>
<stop offset="1" stop-color="#7C00FB"/>
</linearGradient>
<linearGradient id="paint3_linear_1059_31260" x1="191.58" y1="120.323" x2="583.936" y2="289.834" gradientUnits="userSpaceOnUse">
<stop stop-color="#020E1E"/>
<stop offset="1" stop-color="#0D233C"/>
</linearGradient>
<linearGradient id="paint4_linear_1059_31260" x1="894.382" y1="312.061" x2="577.928" y2="524.04" gradientUnits="userSpaceOnUse">
<stop stop-color="#020E1E"/>
<stop offset="1" stop-color="#0D233C"/>
</linearGradient>
<linearGradient id="paint5_linear_1059_31260" x1="192.954" y1="267.088" x2="854.186" y2="284.286" gradientUnits="userSpaceOnUse">
<stop stop-color="#0E00FF"/>
<stop offset="1" stop-color="#7C00FB"/>
</linearGradient>
<linearGradient id="paint6_linear_1059_31260" x1="191.58" y1="-79.3165" x2="583.936" y2="90.1942" gradientUnits="userSpaceOnUse">
<stop stop-color="#020E1E"/>
<stop offset="1" stop-color="#0D233C"/>
</linearGradient>
<linearGradient id="paint7_linear_1059_31260" x1="894.382" y1="112.421" x2="577.928" y2="324.401" gradientUnits="userSpaceOnUse">
<stop stop-color="#020E1E"/>
<stop offset="1" stop-color="#0D233C"/>
</linearGradient>
<linearGradient id="paint8_linear_1059_31260" x1="894.434" y1="23.5658" x2="685.951" y2="442.067" gradientUnits="userSpaceOnUse">
<stop stop-color="#020E1E"/>
<stop offset="1" stop-color="#0D233C"/>
</linearGradient>
</defs>
</svg>
