<svg width="2919" height="564" viewBox="0 0 2919 564" fill="none" xmlns="http://www.w3.org/2000/svg">
<g opacity="0.8">
<mask id="mask0_1049_29388" style="mask-type:alpha" maskUnits="userSpaceOnUse" x="0" y="0" width="2919" height="564">
<rect width="2918.13" height="562.835" transform="matrix(1 0 0 -1 0.712891 563.23)" fill="url(#paint0_radial_1049_29388)"/>
</mask>
<g mask="url(#mask0_1049_29388)">
<path d="M465.21 410.602L464.938 409.684L1102.51 162.603H1772.58L2454.63 412.9L2454.36 413.818L465.21 410.602ZM2449.66 412.562L2391.22 391.098L2224.93 390.837L2273.14 412.277L2449.65 412.562H2449.66ZM2269.5 412.273L2221.35 390.832L2054.67 390.571L2092.59 411.988L2269.5 412.273ZM2089.34 411.983L2051.48 390.567L1884.41 390.306L1912.06 411.698L2089.34 411.983ZM1909.16 411.693L1881.58 390.301L1714.19 390.04L1731.56 411.403L1909.16 411.688V411.693ZM1728.95 411.403L1711.65 390.04L1544.03 389.779L1551.11 411.119L1728.95 411.403ZM1548.68 411.114L1541.67 389.775L1373.93 389.514L1370.72 410.829L1548.68 411.119L1548.68 411.114ZM1368.34 410.824L1371.61 389.509L1203.92 389.248L1190.44 410.539L1368.34 410.829V410.824ZM1187.92 410.534L1201.47 389.248L1033.98 388.988L1010.22 410.249L1187.92 410.534ZM1007.43 410.244L1031.26 388.983L864.066 388.722L830.023 409.96L1007.43 410.244ZM826.907 409.955L861.018 388.717L694.189 388.456L649.863 409.67L826.907 409.955ZM646.362 409.66L690.75 388.447L524.312 388.186L469.708 409.356L646.362 409.641V409.66ZM2387.81 389.852L2329.38 368.383L2173.91 368.146L2222.12 389.586L2387.81 389.847V389.852ZM2218.54 389.586L2170.39 368.146L2014.52 367.909L2052.45 389.326L2218.54 389.586ZM2049.26 389.321L2011.4 367.904L1855.15 367.668L1882.8 389.06L2049.26 389.321ZM1879.97 389.055L1852.39 367.663L1695.82 367.426L1713.18 388.79L1879.97 389.05V389.055ZM1710.64 388.79L1693.35 367.426L1536.54 367.19L1543.62 388.529L1710.64 388.79ZM1541.26 388.524L1534.24 367.185L1377.32 366.948L1374.12 388.263L1541.26 388.524H1541.26ZM1371.81 388.258L1375.07 366.944L1218.2 366.707L1204.72 387.998L1371.81 388.258ZM1202.26 387.993L1215.81 366.707L1059.14 366.47L1035.37 387.732L1202.26 387.993ZM1032.66 387.727L1056.49 366.465L900.109 366.229L866.067 387.466L1032.66 387.727ZM863.019 387.462L897.129 366.224L741.117 365.987L696.791 387.201L863.019 387.462ZM693.359 387.196L737.747 365.983L582.125 365.751L527.521 386.935L693.359 387.196ZM2325.95 367.122L2267.52 345.658L2122.86 345.45L2171.08 366.89L2325.95 367.122ZM2167.57 366.886L2119.42 345.445L1974.37 345.237L2012.29 366.654L2167.57 366.886ZM2009.18 366.649L1971.31 345.233L1825.88 345.025L1853.53 366.417L2009.18 366.654V366.649ZM1850.77 366.412L1823.19 345.02L1677.43 344.813L1694.8 366.181L1850.77 366.417L1850.77 366.412ZM1692.33 366.176L1675.03 344.813L1529.03 344.605L1536.12 365.944L1692.33 366.181V366.176ZM1533.83 365.939L1526.81 344.6L1380.7 344.392L1377.5 365.707L1533.82 365.944L1533.83 365.939ZM1375.26 365.702L1378.52 344.388L1232.47 344.18L1218.99 365.471L1375.26 365.707V365.702ZM1216.61 365.466L1230.16 344.18L1084.3 343.972L1060.53 365.234L1216.61 365.471V365.466ZM1057.89 365.229L1081.71 343.967L936.152 343.76L902.11 364.997L1057.89 365.234V365.229ZM899.13 364.988L933.241 343.75L788.045 343.543L743.719 364.756L899.13 364.988ZM740.355 364.751L784.743 343.538L639.938 343.33L585.334 364.515L740.355 364.746V364.751ZM2264.1 344.412L2205.67 322.942L2071.83 322.759L2120.04 344.199L2264.11 344.407L2264.1 344.412ZM2116.6 344.199L2068.45 322.759L1934.21 322.575L1972.14 343.992L2116.6 344.199ZM1969.09 343.987L1931.23 322.571L1796.61 322.387L1824.26 343.779L1969.09 343.987ZM1821.57 343.774L1793.99 322.382L1659.05 322.199L1676.42 343.567L1821.57 343.774H1821.57ZM1674.01 343.562L1656.72 322.199L1521.54 322.015L1528.62 343.354L1674.02 343.562H1674.01ZM1526.4 343.349L1519.38 322.01L1384.09 321.827L1380.89 343.142L1526.39 343.349H1526.4ZM1378.71 343.137L1381.98 321.822L1246.74 321.639L1233.26 342.924L1378.71 343.132V343.137ZM1230.95 342.924L1244.5 321.634L1109.46 321.45L1085.69 342.712L1230.95 342.92V342.924ZM1083.11 342.712L1106.94 321.45L972.196 321.267L938.154 342.504L1083.11 342.712ZM935.242 342.499L969.352 321.262L834.967 321.078L790.641 342.292L935.236 342.499H935.242ZM787.351 342.287L831.74 321.074L697.751 320.89L643.147 342.075L787.351 342.282V342.287ZM2202.25 321.682L2143.82 300.213L2020.79 300.058L2069.01 321.503L2202.25 321.682ZM2065.63 321.498L2017.48 300.058L1894.06 299.904L1931.99 321.32L2065.63 321.503V321.498ZM1929.01 321.315L1891.15 299.899L1767.35 299.744L1795 321.136L1929.01 321.32V321.315ZM1792.37 321.132L1764.79 299.739L1640.67 299.585L1658.04 320.948L1792.38 321.132H1792.37ZM1655.7 320.948L1638.4 299.585L1514.04 299.425L1521.12 320.765L1655.71 320.948H1655.7ZM1518.97 320.765L1511.95 299.425L1387.48 299.266L1384.28 320.581L1518.97 320.765H1518.97ZM1382.17 320.581L1385.44 299.266L1261.01 299.107L1247.53 320.393L1382.17 320.576V320.581ZM1245.29 320.398L1258.84 299.107L1134.61 298.952L1110.85 320.214L1245.29 320.398ZM1108.34 320.214L1132.17 298.952L1008.24 298.798L974.197 320.035L1108.34 320.219V320.214ZM971.353 320.031L1005.46 298.793L881.902 298.638L837.575 319.852L971.353 320.035V320.031ZM834.348 319.847L878.736 298.634L755.564 298.479L700.96 319.664L834.342 319.847H834.348ZM2140.39 298.976L2081.96 277.507L1969.75 277.377L2017.97 298.817L2140.4 298.972L2140.39 298.976ZM2014.66 298.817L1966.51 277.377L1853.9 277.246L1891.83 298.663L2014.66 298.817ZM1888.92 298.658L1851.06 277.241L1738.08 277.111L1765.73 298.503L1888.92 298.658ZM1763.17 298.498L1735.59 277.106L1622.28 276.976L1639.65 298.339L1763.17 298.494L1763.17 298.498ZM1637.38 298.339L1620.08 276.976L1506.54 276.845L1513.62 298.184L1637.39 298.339H1637.38ZM1511.55 298.18L1504.53 276.841L1390.87 276.71L1387.67 298.025L1511.54 298.18H1511.55ZM1385.63 298.02L1388.89 276.705L1275.29 276.575L1261.81 297.861L1385.63 298.015V298.02ZM1259.63 297.861L1273.18 276.575L1159.77 276.445L1136.01 297.706L1259.63 297.861ZM1133.57 297.702L1157.39 276.44L1044.28 276.309L1010.24 297.547L1133.57 297.702ZM1007.46 297.542L1041.58 276.305L928.824 276.174L884.497 297.388L1007.46 297.542ZM881.344 297.383L925.732 276.174L813.377 276.044L758.773 297.228L881.344 297.383ZM2078.54 276.247L2020.1 254.777L1918.71 254.676L1966.93 276.121L2078.54 276.251L2078.54 276.247ZM1963.69 276.116L1915.54 254.676L1813.75 254.57L1851.68 275.986L1963.69 276.116ZM1848.84 275.986L1810.97 254.57L1708.81 254.463L1736.46 275.856L1848.85 275.986H1848.84ZM1733.97 275.856L1706.39 254.463L1603.9 254.357L1621.26 275.725L1733.97 275.856ZM1619.07 275.725L1601.77 254.362L1499.04 254.256L1506.12 275.595L1619.07 275.725H1619.07ZM1504.11 275.595L1497.09 254.256L1394.25 254.15L1391.05 275.464L1504.1 275.595H1504.11ZM1389.08 275.464L1392.34 254.15L1289.55 254.043L1276.07 275.329L1389.08 275.46V275.464ZM1273.97 275.334L1287.52 254.048L1184.92 253.942L1161.16 275.204L1273.97 275.334ZM1158.79 275.199L1182.61 253.937L1080.32 253.831L1046.28 275.068L1158.79 275.199ZM1043.57 275.068L1077.68 253.831L975.746 253.729L931.426 274.943L1043.57 275.073V275.068ZM928.334 274.933L972.722 253.725L871.184 253.623L816.58 274.808L928.328 274.938L928.334 274.933ZM2016.68 253.536L1958.24 232.067L1867.67 231.99L1915.88 253.435L2016.68 253.536ZM1912.72 253.43L1864.57 231.99L1773.59 231.912L1811.53 253.329L1912.72 253.43H1912.72ZM1808.75 253.324L1770.89 231.907L1679.54 231.83L1707.19 253.222L1808.76 253.324H1808.75ZM1704.77 253.218L1677.18 231.825L1585.51 231.748L1602.87 253.116L1704.77 253.218ZM1600.75 253.111L1583.45 231.743L1491.54 231.666L1498.62 253.005L1600.76 253.106L1600.75 253.111ZM1496.68 253.005L1489.66 231.666L1397.64 231.589L1394.44 252.904L1496.68 253.01L1496.68 253.005ZM1392.54 252.899L1395.8 231.584L1303.83 231.507L1290.35 252.793L1392.54 252.899ZM1288.31 252.793L1301.86 231.507L1210.08 231.429L1186.32 252.691L1288.31 252.793ZM1184.02 252.686L1207.85 231.425L1116.37 231.347L1082.33 252.585L1184.02 252.686ZM1079.69 252.58L1113.8 231.343L1022.69 231.265L978.366 252.479L1079.69 252.58H1079.69ZM975.337 252.474L1019.72 231.265L929.003 231.188L874.399 252.372L975.331 252.474H975.337ZM1954.83 230.811L1896.39 209.342L1816.63 209.289L1864.85 230.734L1954.83 230.811ZM1861.76 230.734L1813.61 209.289L1733.45 209.236L1771.38 230.652L1861.76 230.729L1861.76 230.734ZM1768.67 230.657L1730.81 209.241L1650.28 209.187L1677.93 230.58L1768.68 230.657H1768.67ZM1675.57 230.575L1647.99 209.183L1567.13 209.129L1584.5 230.497L1675.57 230.575ZM1582.44 230.497L1565.15 209.129L1484.05 209.076L1491.13 230.415L1582.45 230.493L1582.44 230.497ZM1489.26 230.415L1482.24 209.076L1401.04 209.023L1397.83 230.338L1489.25 230.415H1489.26ZM1396 230.338L1399.26 209.023L1318.11 208.97L1304.63 230.256L1396 230.333V230.338ZM1302.66 230.256L1316.21 208.97L1235.25 208.917L1211.48 230.179L1302.66 230.256ZM1209.25 230.179L1233.08 208.917L1152.42 208.864L1118.38 230.101L1209.25 230.179ZM1115.81 230.097L1149.91 208.859L1069.61 208.806L1025.29 230.015L1115.81 230.092V230.097ZM1022.34 230.015L1066.73 208.806L986.829 208.753L932.231 229.937L1022.35 230.015H1022.34ZM1892.99 208.086L1834.55 186.617L1765.6 186.593L1813.82 208.038L1892.99 208.091V208.086ZM1810.8 208.033L1762.64 186.588L1693.3 186.564L1731.23 207.98L1810.8 208.033ZM1728.6 207.98L1690.73 186.564L1621.01 186.54L1648.66 207.932L1728.6 207.985V207.98ZM1646.38 207.927L1618.8 186.535L1548.76 186.511L1566.12 207.879L1646.38 207.932V207.927ZM1564.14 207.874L1546.84 186.511L1476.55 186.487L1483.64 207.826L1564.14 207.879V207.874ZM1481.84 207.821L1474.82 186.482L1404.43 186.453L1401.23 207.768L1481.84 207.821ZM1399.46 207.768L1402.73 186.453L1332.39 186.429L1318.91 207.715L1399.46 207.768ZM1317.01 207.715L1330.55 186.429L1260.41 186.405L1236.65 207.666L1317.01 207.719V207.715ZM1234.49 207.661L1258.31 186.4L1188.47 186.376L1154.43 207.613L1234.49 207.666V207.661ZM1151.93 207.608L1186.03 186.371L1116.56 186.347L1072.24 207.555L1151.93 207.608ZM1069.35 207.555L1113.73 186.347L1044.65 186.322L990.05 207.507L1069.35 207.56V207.555ZM1831.15 185.361L1772.71 163.892H1714.58L1762.8 185.337L1831.15 185.361H1831.15ZM1759.84 185.337L1711.69 163.892H1653.15L1691.09 185.308L1759.83 185.333L1759.84 185.337ZM1688.53 185.313L1650.66 163.897H1591.76L1619.41 185.289L1688.53 185.313ZM1617.2 185.289L1589.62 163.897H1530.39L1547.76 185.265L1617.2 185.289ZM1545.84 185.265L1528.54 163.897H1469.08L1476.16 185.236L1545.84 185.26L1545.84 185.265ZM1474.42 185.241L1467.4 163.902H1407.83L1404.63 185.217L1474.42 185.241ZM1402.93 185.217L1406.2 163.902H1346.67L1333.19 185.188L1402.93 185.212V185.217ZM1331.36 185.192L1344.91 163.907H1285.58L1261.82 185.168L1331.36 185.192ZM1259.72 185.168L1283.55 163.907H1224.52L1190.48 185.144L1259.72 185.168ZM1188.05 185.144L1222.15 163.907H1163.49L1119.17 185.115L1188.05 185.139V185.144ZM1116.35 185.115L1160.73 163.907H1102.47L1047.87 185.091L1116.35 185.115Z" fill="url(#paint1_linear_1049_29388)"/>
</g>
</g>
<defs>
<radialGradient id="paint0_radial_1049_29388" cx="0" cy="0" r="1" gradientUnits="userSpaceOnUse" gradientTransform="translate(1459.07 281.417) rotate(90) scale(281.417 1459.07)">
<stop/>
<stop offset="0.510417" stop-opacity="0"/>
</radialGradient>
<linearGradient id="paint1_linear_1049_29388" x1="850.6" y1="243.145" x2="1935.86" y2="243.145" gradientUnits="userSpaceOnUse">
<stop stop-color="#006DFF"/>
<stop offset="0.526042" stop-color="#4315F3"/>
<stop offset="1" stop-color="#FD37D1"/>
</linearGradient>
</defs>
</svg>
