<svg width="96" height="25" viewBox="0 0 96 25" fill="none" xmlns="http://www.w3.org/2000/svg">
<path d="M37.3864 18.2199H33.4727V6.55563H37.5001C38.542 6.52778 39.5735 6.76929 40.4947 7.25681C41.3105 7.72083 41.9702 8.4167 42.3899 9.25613C42.8599 10.23 43.0905 11.3021 43.0627 12.383C43.0921 13.4652 42.8579 14.5383 42.3804 15.51C41.9637 16.3564 41.3038 17.0592 40.4852 17.5282C39.5465 18.0136 38.4995 18.2516 37.4433 18.2199H37.3864ZM35.548 16.3912H37.2632C37.9692 16.4185 38.6705 16.2652 39.3006 15.9458C39.8429 15.6456 40.2721 15.1765 40.5231 14.6098C40.8172 13.9054 40.9562 13.1459 40.9306 12.383C40.958 11.62 40.819 10.8602 40.5231 10.1563C40.2729 9.59458 39.8473 9.12911 39.3101 8.82974C38.6983 8.51582 38.0168 8.36257 37.3295 8.38439H35.529V16.3912H35.548Z" fill="white"/>
<path d="M46.773 18.4012C46.2598 18.4117 45.7506 18.3081 45.2819 18.098C44.8573 17.9128 44.4963 17.6064 44.2438 17.2167C43.975 16.7824 43.8403 16.2779 43.8569 15.7669C43.8425 15.3426 43.9368 14.9218 44.1306 14.5445C44.3076 14.2248 44.5646 13.957 44.8761 13.7675C45.2069 13.5675 45.5667 13.4204 45.9425 13.3316C46.3445 13.2237 46.755 13.1507 47.1694 13.1136L48.4057 12.962C48.6494 12.9432 48.8868 12.8755 49.1041 12.763C49.1741 12.7148 49.2308 12.6495 49.2688 12.5733C49.3068 12.497 49.3248 12.4123 49.3211 12.3271C49.3324 12.1439 49.3046 11.9603 49.2395 11.7887C49.1744 11.6171 49.0735 11.4614 48.9436 11.3322C48.6366 11.0794 48.245 10.954 47.8489 10.9816C47.4253 10.9574 47.0052 11.0703 46.6503 11.3037C46.3781 11.4979 46.1735 11.773 46.0652 12.0902L44.1778 11.8154C44.2886 11.2914 44.5324 10.8051 44.8856 10.4035C45.2411 10.038 45.6776 9.76195 46.1596 9.59807C46.6954 9.40612 47.2613 9.31303 47.83 9.32327C48.2499 9.32228 48.6683 9.37321 49.0758 9.47489C49.4831 9.56307 49.8704 9.72697 50.2177 9.95816C50.5723 10.1956 50.8587 10.5223 51.0482 10.9057C51.2782 11.3564 51.3887 11.859 51.369 12.365V18.2117H49.4155V17.0367H49.34C49.0524 17.5955 48.5628 18.0226 47.9716 18.2306C47.5891 18.3624 47.1868 18.4266 46.7825 18.4201L46.773 18.4012ZM47.311 16.885C47.6812 16.8921 48.0474 16.8074 48.3774 16.6387C48.6656 16.4858 48.9094 16.2605 49.0852 15.9848C49.2461 15.7124 49.3308 15.4014 49.3306 15.0846V14.0518C49.2313 14.1233 49.1191 14.1748 49.0003 14.2034C48.8326 14.2532 48.6625 14.2943 48.4906 14.3265C48.3019 14.3265 48.1131 14.3929 47.9244 14.4118L47.4431 14.4782C47.1626 14.5172 46.8873 14.5871 46.622 14.6866C46.3991 14.767 46.2007 14.9042 46.0464 15.0846C45.8982 15.2689 45.8241 15.5021 45.8387 15.7385C45.8301 15.9057 45.8636 16.0724 45.9362 16.2231C46.0088 16.3738 46.1181 16.5037 46.254 16.6008C46.5687 16.8026 46.9379 16.9019 47.311 16.885Z" fill="white"/>
<path d="M57.0473 9.43533V11.0246H52.0645V9.43533H57.0473ZM53.2937 7.34473H55.3395V15.5463C55.3264 15.7646 55.3684 15.9826 55.4614 16.1801C55.5354 16.3156 55.6553 16.4197 55.7993 16.4734C55.9456 16.5314 56.1018 16.5603 56.2591 16.5585C56.3777 16.569 56.497 16.569 56.6157 16.5585L56.8596 16.5017L57.2068 18.1099C56.8212 18.2479 56.4149 18.3183 56.0057 18.318C55.5313 18.3407 55.0576 18.2601 54.6169 18.0815C54.2321 17.913 53.9055 17.6331 53.6785 17.2774C53.4273 16.8695 53.3031 16.395 53.3219 15.9152V7.4015L53.2937 7.34473Z" fill="white"/>
<path d="M60.5489 18.4011C60.0307 18.4135 59.5164 18.3101 59.0439 18.0986C58.6109 17.917 58.2426 17.6109 57.9866 17.2196C57.7181 16.7857 57.5855 16.2824 57.6056 15.7735C57.5882 15.3512 57.68 14.9314 57.8723 14.5543C58.0566 14.2395 58.3147 13.9736 58.6248 13.7792C58.9587 13.5797 59.3218 13.433 59.7012 13.3444C60.107 13.2376 60.5212 13.1649 60.9394 13.1271L62.1967 12.9758C62.4422 12.9542 62.6813 12.8868 62.9016 12.7773C62.9723 12.7293 63.0295 12.6641 63.0679 12.5881C63.1062 12.512 63.1244 12.4275 63.1207 12.3426C63.1309 12.159 63.1013 11.9755 63.0339 11.8043C62.9666 11.6331 62.863 11.4782 62.7302 11.3501C62.4217 11.0954 62.0254 10.97 61.6252 11.0004C61.2007 10.9763 60.7797 11.089 60.4251 11.3218C60.1507 11.518 59.9417 11.7912 59.825 12.1063L57.9199 11.8322C58.0541 11.3323 58.3128 10.874 58.6724 10.4995C59.0328 10.1368 59.4729 9.86177 59.9583 9.69608C60.4994 9.50581 61.0703 9.413 61.6443 9.42198C62.0712 9.42041 62.4967 9.47121 62.9111 9.57321C63.3211 9.66461 63.7114 9.82784 64.0637 10.0552C64.4194 10.2947 64.7078 10.6199 64.9019 11.0004C65.1265 11.4523 65.2345 11.9524 65.2162 12.456V18.2877H63.2255V17.0401H63.1588C63.0244 17.2973 62.8436 17.528 62.6254 17.7206C62.378 17.9474 62.0862 18.1212 61.7681 18.231C61.3856 18.3633 60.9825 18.4273 60.5775 18.42L60.5489 18.4011ZM61.0823 16.8888C61.4591 16.897 61.8322 16.8126 62.1682 16.6431C62.4556 16.4892 62.6983 16.2647 62.873 15.9909C63.0354 15.7191 63.121 15.409 63.1207 15.093V14.0628C63.0233 14.133 62.9135 14.1843 62.7968 14.214L62.273 14.3369L61.711 14.4219L61.2252 14.4881C60.9419 14.5259 60.6638 14.5956 60.3965 14.696C60.1714 14.7762 59.9712 14.913 59.8155 15.093C59.649 15.3232 59.5771 15.6075 59.6142 15.8884C59.6514 16.1692 59.7948 16.4255 60.0155 16.6053C60.3351 16.8022 60.7063 16.9009 61.0823 16.8888Z" fill="white"/>
<path d="M68.5806 6.55347V18.2227H66.5039V6.55347H68.5806Z" fill="white"/>
<path d="M72.4713 18.4012C71.9607 18.4117 71.4541 18.3084 70.9877 18.0988C70.5652 17.9141 70.2059 17.6084 69.9548 17.2198C69.6873 16.7866 69.5533 16.2834 69.5698 15.7737C69.5555 15.3505 69.6492 14.9307 69.8421 14.5544C70.0182 14.2355 70.2739 13.9684 70.5839 13.7794C70.9123 13.5783 71.2705 13.4315 71.645 13.3446C72.0449 13.2369 72.4534 13.1642 72.8657 13.1272L74.0958 12.976C74.338 12.9557 74.574 12.8883 74.7907 12.7775C74.8604 12.7294 74.9168 12.6643 74.9546 12.5882C74.9924 12.5122 75.0103 12.4277 75.0067 12.3427C75.0179 12.1599 74.9903 11.9768 74.9255 11.8056C74.8607 11.6345 74.7603 11.4792 74.6311 11.3503C74.3256 11.0982 73.9359 10.9731 73.5418 11.0006C73.1202 10.9751 72.7018 11.0878 72.3493 11.3219C72.0787 11.5182 71.8727 11.7914 71.7577 12.1064L69.8797 11.8323C70.0153 11.3318 70.2736 10.8736 70.6309 10.4996C70.983 10.133 71.4179 9.85738 71.8985 9.69624C72.4316 9.50478 72.9947 9.41193 73.5606 9.42215C73.9784 9.42116 74.3947 9.47195 74.8001 9.57338C75.2054 9.66133 75.5908 9.82481 75.9363 10.0554C76.2892 10.2922 76.5742 10.6181 76.7627 11.0006C76.9916 11.4501 77.1015 11.9514 77.0819 12.4561V18.2878H75.0818V17.0402H75.0067C74.7205 17.5975 74.2334 18.0236 73.6451 18.2311C73.2646 18.3626 72.8642 18.4266 72.462 18.4201L72.4713 18.4012ZM73.0066 16.889C73.375 16.896 73.7394 16.8116 74.0677 16.6432C74.3536 16.493 74.5938 16.2677 74.7626 15.991C74.9295 15.7218 75.0174 15.4105 75.0161 15.0931V14.0629C74.9173 14.1343 74.8057 14.1856 74.6874 14.2141C74.5206 14.2638 74.3514 14.3049 74.1804 14.337C73.9925 14.337 73.8048 14.4032 73.617 14.4221L73.138 14.4882C72.8587 14.526 72.5847 14.5958 72.3211 14.6962C72.0992 14.7764 71.9019 14.9131 71.7483 15.0931C71.583 15.3236 71.5123 15.6093 71.5508 15.8909C71.5892 16.1725 71.734 16.4284 71.9549 16.6054C72.268 16.8068 72.6354 16.9058 73.0066 16.889Z" fill="white"/>
<path d="M80.5104 13.0852V18.2228H78.4688V9.43848H80.4257V10.9294H80.5292C80.7147 10.4507 81.0436 10.0424 81.47 9.76136C81.9607 9.45501 82.5305 9.30295 83.1071 9.32452C83.6556 9.31322 84.1974 9.44748 84.6783 9.71387C85.1251 9.97639 85.4851 10.3662 85.7132 10.8345C85.9799 11.3898 86.106 12.0032 86.0801 12.6198V18.2038H84.0291V12.9427C84.0596 12.4438 83.9016 11.9517 83.5869 11.5657C83.4274 11.398 83.2338 11.267 83.0194 11.1818C82.8051 11.0966 82.575 11.0591 82.345 11.0719C82.0162 11.0667 81.6918 11.1486 81.4042 11.3093C81.1295 11.4726 80.9049 11.7092 80.755 11.9931C80.5928 12.3267 80.5122 12.6946 80.5198 13.0662L80.5104 13.0852Z" fill="white"/>
<path d="M90.7032 18.4188C90.0368 18.4349 89.3809 18.2495 88.8196 17.8864C88.2607 17.4999 87.8203 16.963 87.5482 16.3367C86.9136 14.7576 86.9136 12.9909 87.5482 11.4118C87.8217 10.7858 88.27 10.2538 88.8384 9.8811C89.3835 9.53875 90.0142 9.36063 90.6561 9.36768C91.0879 9.35167 91.5173 9.43966 91.9087 9.62439C92.2079 9.77912 92.4736 9.99243 92.6904 10.2519C92.8689 10.4601 93.0207 10.6901 93.1424 10.9364H93.2272V6.55347H95.2803V18.2572H93.2649V16.8786H93.1424C93.0146 17.1206 92.8597 17.3471 92.681 17.5536C92.4626 17.8104 92.193 18.0177 91.8899 18.1621C91.5015 18.3461 91.0754 18.4341 90.6467 18.4188H90.7032ZM91.2777 16.717C91.6769 16.7304 92.0688 16.6063 92.389 16.3652C92.7017 16.1172 92.9424 15.7888 93.0859 15.4145C93.2523 14.9351 93.3321 14.4296 93.3214 13.9218C93.3337 13.417 93.2539 12.9142 93.0859 12.4386C92.9493 12.063 92.7111 11.7336 92.3984 11.4879C92.0715 11.2531 91.6788 11.1299 91.2777 11.1361C90.8666 11.1215 90.4634 11.2527 90.1381 11.5069C89.8237 11.7531 89.5826 12.0821 89.4412 12.4576C89.2833 12.9257 89.2069 13.4179 89.2152 13.9123C89.2058 14.4106 89.2856 14.9066 89.4506 15.3764C89.5798 15.7742 89.8222 16.1247 90.1475 16.3842C90.4692 16.6384 90.8695 16.7698 91.2777 16.755V16.717Z" fill="white"/>
<path fill-rule="evenodd" clip-rule="evenodd" d="M14.1997 20.4284V24.8597L0.0253906 21.2372V16.853L14.1341 20.4436L14.1997 20.4284Z" fill="url(#paint0_linear_910_47504)"/>
<path fill-rule="evenodd" clip-rule="evenodd" d="M14.1992 20.4284V24.8589L22.9347 22.643C23.5228 22.4882 24.9538 21.9543 25.1806 21.2274C25.2177 21.1086 25.2119 21.0165 25.2119 20.8966V16.8051C25.1656 17.4815 24.0477 18.1595 21.8821 18.6585L14.1992 20.4284Z" fill="url(#paint1_linear_910_47504)"/>
<path fill-rule="evenodd" clip-rule="evenodd" d="M0.0253906 16.8527L7.68242 15.0434C11.8938 14.0481 18.5346 14.0473 22.4397 15.0415C26.3448 16.0354 26.0995 17.6867 21.8829 18.6583L14.1341 20.4436L0.0253906 16.8527Z" fill="#310370"/>
<path fill-rule="evenodd" clip-rule="evenodd" d="M14.1997 13.3778V17.8092L0.0253906 14.1867V9.80249L14.1341 13.3931L14.1997 13.3778Z" fill="url(#paint2_linear_910_47504)"/>
<path fill-rule="evenodd" clip-rule="evenodd" d="M14.1992 13.3782V17.8088L22.9347 15.5925C23.5228 15.4377 24.9538 14.9038 25.1806 14.177C25.2177 14.0582 25.2119 13.9663 25.2119 13.8461V9.75464C25.1656 10.4311 24.0477 11.1091 21.8821 11.6081L14.1992 13.3782Z" fill="url(#paint3_linear_910_47504)"/>
<path fill-rule="evenodd" clip-rule="evenodd" d="M0.0253906 9.8028L7.68242 7.99347C11.8938 6.99818 18.5346 6.99737 22.4397 7.99156C26.3448 8.98548 26.0995 10.6367 21.8829 11.6083L14.1341 13.3937L0.0253906 9.8028Z" fill="#310370"/>
<path fill-rule="evenodd" clip-rule="evenodd" d="M14.1997 6.2455V10.6769L0.0253906 7.05438V2.67017L14.1341 6.26076L14.1997 6.2455Z" fill="url(#paint4_linear_910_47504)"/>
<path fill-rule="evenodd" clip-rule="evenodd" d="M14.1992 6.24637V10.6769L22.9347 8.46069C23.5228 8.30589 24.9538 7.772 25.1806 7.04516C25.2177 6.92634 25.2119 6.8345 25.2119 6.71431V2.6228C25.1656 3.29923 24.0477 3.97728 21.8821 4.47629L14.1992 6.24637Z" fill="url(#paint5_linear_910_47504)"/>
<path fill-rule="evenodd" clip-rule="evenodd" d="M0.0253906 2.67085L7.68242 0.861509C11.8938 -0.133775 18.5346 -0.13459 22.4397 0.859604C26.3448 1.85353 26.0995 3.50479 21.8829 4.47636L14.1341 6.26171L0.0253906 2.67085Z" fill="url(#paint6_linear_910_47504)"/>
<defs>
<linearGradient id="paint0_linear_910_47504" x1="14.1998" y1="20.8563" x2="0.0254447" y2="20.8563" gradientUnits="userSpaceOnUse">
<stop stop-color="#8D37FD"/>
<stop offset="1" stop-color="#1560F3"/>
</linearGradient>
<linearGradient id="paint1_linear_910_47504" x1="25.2124" y1="20.8319" x2="14.1993" y2="20.8319" gradientUnits="userSpaceOnUse">
<stop stop-color="#2C0069"/>
<stop offset="1" stop-color="#8D37FE"/>
</linearGradient>
<linearGradient id="paint2_linear_910_47504" x1="14.1998" y1="13.8057" x2="0.0254447" y2="13.8057" gradientUnits="userSpaceOnUse">
<stop stop-color="#8D37FD"/>
<stop offset="1" stop-color="#1560F3"/>
</linearGradient>
<linearGradient id="paint3_linear_910_47504" x1="25.2124" y1="13.7817" x2="14.1993" y2="13.7817" gradientUnits="userSpaceOnUse">
<stop stop-color="#2C0069"/>
<stop offset="1" stop-color="#8D37FE"/>
</linearGradient>
<linearGradient id="paint4_linear_910_47504" x1="14.1998" y1="6.6734" x2="0.0254447" y2="6.6734" gradientUnits="userSpaceOnUse">
<stop stop-color="#8D37FD"/>
<stop offset="1" stop-color="#1560F3"/>
</linearGradient>
<linearGradient id="paint5_linear_910_47504" x1="25.2124" y1="6.64983" x2="14.1993" y2="6.64983" gradientUnits="userSpaceOnUse">
<stop stop-color="#2C0069"/>
<stop offset="1" stop-color="#8D37FE"/>
</linearGradient>
<linearGradient id="paint6_linear_910_47504" x1="25.2145" y1="3.18802" x2="0.0254867" y2="3.18802" gradientUnits="userSpaceOnUse">
<stop stop-color="#8D37FD"/>
<stop offset="1" stop-color="#1560F3"/>
</linearGradient>
</defs>
</svg>
