<svg width="20" height="20" viewBox="0 0 20 20" fill="none" xmlns="http://www.w3.org/2000/svg">
<path fill-rule="evenodd" clip-rule="evenodd" d="M10.0074 2.16321C5.5968 2.16321 2.03125 5.75504 2.03125 10.1986C2.03125 13.7506 4.31582 16.7573 7.48513 17.8215C7.88137 17.9015 8.02652 17.6486 8.02652 17.4359C8.02652 17.2496 8.01345 16.611 8.01345 15.9457C5.79468 16.4248 5.33264 14.9879 5.33264 14.9879C4.97607 14.0566 4.44774 13.8172 4.44774 13.8172C3.72154 13.325 4.50064 13.325 4.50064 13.325C5.30619 13.3782 5.72888 14.1498 5.72888 14.1498C6.44186 15.3737 7.59076 15.0279 8.05296 14.815C8.11892 14.2961 8.33035 13.9369 8.55484 13.7374C6.78521 13.5511 4.92333 12.8594 4.92333 9.77284C4.92333 8.8948 5.24007 8.17643 5.74194 7.61774C5.66276 7.41823 5.38537 6.59325 5.82129 5.48909C5.82129 5.48909 6.49476 5.27619 8.01329 6.3139C8.66343 6.13801 9.3339 6.04853 10.0074 6.04778C10.6809 6.04778 11.3674 6.141 12.0014 6.3139C13.5201 5.27619 14.1935 5.48909 14.1935 5.48909C14.6295 6.59325 14.3519 7.41823 14.2727 7.61774C14.7878 8.17643 15.0915 8.8948 15.0915 9.77284C15.0915 12.8594 13.2296 13.5377 11.4468 13.7374C11.7374 13.9901 11.9881 14.469 11.9881 15.2274C11.9881 16.3049 11.9751 17.1697 11.9751 17.4357C11.9751 17.6486 12.1204 17.9015 12.5165 17.8217C15.6858 16.7572 17.9704 13.7506 17.9704 10.1986C17.9834 5.75504 14.4048 2.16321 10.0074 2.16321Z" fill="white"/>
</svg>
