<svg width="296" height="73" viewBox="0 0 296 73" fill="none" xmlns="http://www.w3.org/2000/svg">
<path d="M110.046 54.671H97.5059V17.2973H110.41C113.748 17.208 117.053 17.9819 120.005 19.5439C122.619 21.0307 124.733 23.2603 126.078 25.95C127.583 29.0705 128.322 32.5053 128.233 35.9689C128.327 39.4364 127.577 42.8747 126.047 45.9879C124.712 48.7 122.598 50.9517 119.975 52.4547C116.967 54.0098 113.612 54.7725 110.228 54.671H110.046ZM104.155 48.8114H109.651C111.913 48.8991 114.16 48.4079 116.179 47.3845C117.917 46.4226 119.292 44.9194 120.096 43.1036C121.038 40.8467 121.484 38.4133 121.402 35.9689C121.49 33.5241 121.044 31.0895 120.096 28.8342C119.294 27.0344 117.931 25.543 116.21 24.5838C114.249 23.5779 112.066 23.0869 109.864 23.1568H104.095V48.8114H104.155Z" fill="white"/>
<path d="M140.123 55.2515C138.479 55.2851 136.847 54.9533 135.346 54.2799C133.985 53.6867 132.828 52.7047 132.019 51.4562C131.158 50.0648 130.727 48.4483 130.78 46.8109C130.734 45.4515 131.035 44.103 131.656 42.8942C132.224 41.8699 133.047 41.0118 134.045 40.4045C135.105 39.7637 136.258 39.2925 137.462 39.0079C138.75 38.6621 140.065 38.4285 141.393 38.3096L145.354 37.8238C146.135 37.7633 146.896 37.5466 147.592 37.1862C147.817 37.0318 147.998 36.8226 148.12 36.5782C148.241 36.3339 148.299 36.0625 148.288 35.7895C148.324 35.2023 148.235 34.6141 148.026 34.0643C147.817 33.5145 147.494 33.0157 147.078 32.6015C146.094 31.7918 144.839 31.3899 143.57 31.4782C142.213 31.4007 140.867 31.7625 139.73 32.5105C138.858 33.1327 138.202 34.0141 137.855 35.0305L131.808 34.15C132.163 32.471 132.944 30.9126 134.076 29.6261C135.215 28.4548 136.613 27.5704 138.158 27.0453C139.874 26.4303 141.688 26.132 143.51 26.1649C144.855 26.1617 146.196 26.3249 147.501 26.6507C148.806 26.9332 150.047 27.4584 151.16 28.1991C152.297 28.9598 153.214 30.0068 153.821 31.2353C154.558 32.6793 154.912 34.2896 154.849 35.911V54.6442H148.59V50.8794H148.348C147.426 52.6698 145.858 54.0385 143.963 54.7049C142.738 55.1273 141.449 55.3328 140.153 55.3122L140.123 55.2515ZM141.847 50.3936C143.033 50.416 144.207 50.1449 145.264 49.6042C146.187 49.1142 146.968 48.3924 147.532 47.5092C148.047 46.6361 148.319 45.6398 148.318 44.6248V41.3154C148 41.5446 147.64 41.7096 147.259 41.8012C146.722 41.9609 146.177 42.0926 145.627 42.1959C145.022 42.1959 144.417 42.4084 143.812 42.4691L142.27 42.6817C141.371 42.8068 140.489 43.0308 139.639 43.3496C138.925 43.6072 138.289 44.0466 137.795 44.6248C137.32 45.2152 137.083 45.9626 137.13 46.7198C137.102 47.2555 137.209 47.7896 137.442 48.2726C137.675 48.7556 138.025 49.1718 138.46 49.4827C139.469 50.1295 140.651 50.4476 141.847 50.3936Z" fill="white"/>
<path d="M173.041 26.5238V31.6158H157.076V26.5238H173.041ZM161.014 19.8253H167.569V46.104C167.527 46.8033 167.662 47.5019 167.96 48.1348C168.197 48.569 168.581 48.9025 169.042 49.0743C169.511 49.2602 170.012 49.3528 170.516 49.3471C170.896 49.3808 171.278 49.3808 171.658 49.3471L172.44 49.1653L173.552 54.318C172.317 54.76 171.015 54.9856 169.704 54.9848C168.184 55.0576 166.666 54.7992 165.254 54.227C164.021 53.687 162.974 52.7904 162.247 51.6507C161.442 50.3436 161.044 48.8234 161.105 47.2861V20.0072L161.014 19.8253Z" fill="white"/>
<path d="M184.257 55.2514C182.597 55.2911 180.949 54.9599 179.435 54.2823C178.047 53.7004 176.867 52.7194 176.047 51.4658C175.187 50.0754 174.762 48.4627 174.826 46.8324C174.771 45.4791 175.065 44.1342 175.681 42.9257C176.271 41.9172 177.098 41.0653 178.092 40.4424C179.162 39.8031 180.325 39.3331 181.541 39.0493C182.841 38.707 184.168 38.474 185.508 38.3528L189.537 37.8682C190.323 37.7988 191.089 37.5831 191.795 37.2322C192.022 37.0783 192.205 36.8696 192.328 36.6258C192.451 36.3821 192.509 36.1114 192.497 35.8391C192.53 35.2512 192.435 34.6631 192.219 34.1145C192.003 33.566 191.672 33.0697 191.246 32.6593C190.258 31.8432 188.988 31.4413 187.706 31.5388C186.346 31.4616 184.997 31.8228 183.86 32.5684C182.981 33.1972 182.311 34.0726 181.937 35.082L175.834 34.2038C176.263 32.6022 177.092 31.1337 178.245 29.9337C179.399 28.7715 180.809 27.8904 182.365 27.3595C184.098 26.7499 185.928 26.4525 187.767 26.4813C189.135 26.4763 190.498 26.639 191.826 26.9659C193.14 27.2587 194.39 27.7817 195.519 28.5104C196.658 29.2775 197.583 30.3196 198.204 31.5388C198.924 32.9867 199.27 34.5892 199.212 36.2025V54.888H192.833V50.8904H192.619C192.189 51.7147 191.609 52.4538 190.91 53.0709C190.118 53.7977 189.183 54.3544 188.164 54.7062C186.938 55.1302 185.646 55.3353 184.349 55.312L184.257 55.2514ZM185.966 50.4059C187.174 50.4321 188.369 50.1616 189.445 49.6185C190.366 49.1256 191.144 48.406 191.704 47.5289C192.224 46.6581 192.498 45.6642 192.497 44.6519V41.3509C192.185 41.576 191.833 41.7404 191.46 41.8354L189.781 42.2291L187.98 42.5017L186.424 42.7137C185.516 42.8347 184.625 43.0583 183.769 43.38C183.048 43.6369 182.406 44.0751 181.907 44.6519C181.374 45.3893 181.143 46.3004 181.262 47.2003C181.381 48.1002 181.841 48.9215 182.548 49.4973C183.572 50.1285 184.761 50.4446 185.966 50.4059Z" fill="white"/>
<path d="M209.99 17.2904V54.68H203.336V17.2904H209.99Z" fill="white"/>
<path d="M222.461 55.2518C220.825 55.2853 219.202 54.9544 217.708 54.2826C216.354 53.691 215.203 52.7115 214.398 51.4662C213.541 50.0784 213.112 48.466 213.165 46.8328C213.119 45.4769 213.419 44.1318 214.037 42.9261C214.601 41.9044 215.421 41.0485 216.414 40.4428C217.466 39.7986 218.614 39.3283 219.814 39.0497C221.095 38.7048 222.404 38.4718 223.725 38.3532L227.667 37.8687C228.443 37.8037 229.199 37.5877 229.893 37.2327C230.116 37.0787 230.297 36.87 230.418 36.6263C230.539 36.3826 230.597 36.1119 230.585 35.8396C230.621 35.2539 230.532 34.6672 230.325 34.1188C230.117 33.5704 229.796 33.0729 229.382 32.6598C228.403 31.8521 227.154 31.4513 225.891 31.5393C224.541 31.4577 223.2 31.8189 222.07 32.5689C221.204 33.1977 220.543 34.0731 220.175 35.0825L214.157 34.2043C214.592 32.6007 215.42 31.1325 216.564 29.9342C217.693 28.7595 219.086 27.8764 220.626 27.3601C222.334 26.7466 224.138 26.4491 225.952 26.4818C227.29 26.4787 228.624 26.6414 229.923 26.9664C231.222 27.2482 232.456 27.772 233.564 28.5109C234.694 29.2697 235.607 30.3139 236.211 31.5393C236.945 32.9796 237.297 34.5858 237.234 36.203V54.8884H230.826V50.8908H230.585C229.668 52.6767 228.107 54.0419 226.222 54.7066C225.003 55.1279 223.72 55.3329 222.431 55.3123L222.461 55.2518ZM224.176 50.4063C225.357 50.4287 226.524 50.1583 227.576 49.6189C228.492 49.1377 229.262 48.4156 229.803 47.5293C230.338 46.6666 230.619 45.6692 230.615 44.6523V41.3514C230.299 41.58 229.941 41.7445 229.562 41.8359C229.028 41.9952 228.485 42.1266 227.937 42.2296C227.336 42.2296 226.734 42.4416 226.132 42.5021L224.598 42.7141C223.703 42.8352 222.825 43.0587 221.98 43.3804C221.269 43.6373 220.637 44.0756 220.145 44.6523C219.615 45.3908 219.389 46.3062 219.512 47.2084C219.635 48.1107 220.099 48.9305 220.807 49.4977C221.81 50.1429 222.987 50.4602 224.176 50.4063Z" fill="white"/>
<path d="M248.219 38.2183V54.6799H241.677V26.534H247.948V31.3112H248.279C248.874 29.7773 249.927 28.4689 251.294 27.5685C252.866 26.587 254.692 26.0998 256.539 26.1689C258.296 26.1327 260.032 26.5628 261.573 27.4164C263.005 28.2575 264.158 29.5066 264.889 31.0069C265.744 32.7863 266.148 34.7518 266.065 36.7274V54.619H259.493V37.7619C259.591 36.1633 259.085 34.5866 258.077 33.3499C257.565 32.8124 256.945 32.3928 256.258 32.1197C255.571 31.8466 254.834 31.7265 254.097 31.7676C253.044 31.751 252.004 32.0132 251.083 32.5283C250.203 33.0514 249.483 33.8095 249.003 34.7191C248.483 35.7881 248.225 36.9671 248.249 38.1575L248.219 38.2183Z" fill="white"/>
<path d="M280.877 55.3083C278.742 55.3598 276.64 54.7657 274.842 53.6024C273.051 52.364 271.64 50.6438 270.768 48.6369C268.735 43.5772 268.735 37.9168 270.768 32.8571C271.644 30.8511 273.081 29.1467 274.902 27.9525C276.649 26.8556 278.669 26.2849 280.726 26.3075C282.11 26.2562 283.485 26.5381 284.74 27.13C285.698 27.6258 286.55 28.3093 287.244 29.1406C287.816 29.8076 288.303 30.5445 288.693 31.3339H288.964V17.2904H295.543V54.7905H289.085V50.3733H288.693C288.283 51.1488 287.787 51.8744 287.214 52.5362C286.514 53.3588 285.651 54.0232 284.679 54.4858C283.435 55.0752 282.07 55.3571 280.696 55.3083H280.877ZM282.718 49.8555C283.997 49.8983 285.253 49.5008 286.279 48.7283C287.281 47.9338 288.052 46.8815 288.512 45.682C289.045 44.1462 289.3 42.5263 289.266 40.8993C289.305 39.2819 289.05 37.6711 288.512 36.1471C288.074 34.9437 287.311 33.8883 286.309 33.1008C285.261 32.3486 284.003 31.9537 282.718 31.9736C281.401 31.927 280.109 32.3473 279.067 33.1617C278.059 33.9508 277.287 35.0048 276.834 36.208C276.328 37.7078 276.083 39.2847 276.109 40.8688C276.079 42.4657 276.335 44.0549 276.864 45.5602C277.278 46.8347 278.054 47.9578 279.097 48.7892C280.127 49.6037 281.41 50.0245 282.718 49.9773V49.8555Z" fill="white"/>
<path fill-rule="evenodd" clip-rule="evenodd" d="M40.553 59.4432V72.0062L0.368652 61.7362V49.3071L40.367 59.4864L40.553 59.4432Z" fill="url(#paint0_linear_1215_29245)"/>
<path fill-rule="evenodd" clip-rule="evenodd" d="M40.5537 59.4435V72.004L65.3187 65.722C66.9862 65.2828 71.0434 63.7696 71.6861 61.7087C71.7911 61.372 71.775 61.1106 71.775 60.7707V49.1714C71.6436 51.0891 68.4744 53.0112 62.3352 54.4262L40.5537 59.4435Z" fill="url(#paint1_linear_1215_29245)"/>
<path fill-rule="evenodd" clip-rule="evenodd" d="M0.368652 49.3065L22.0764 44.177C34.0159 41.3555 52.8425 41.3532 63.9137 44.1717C74.9846 46.9896 74.2891 51.6709 62.3352 54.4253L40.367 59.4869L0.368652 49.3065Z" fill="#281692"/>
<path fill-rule="evenodd" clip-rule="evenodd" d="M40.553 38.8267V51.3897L0.368652 41.1197V28.6906L40.367 38.8699L40.553 38.8267Z" fill="url(#paint2_linear_1215_29245)"/>
<path fill-rule="evenodd" clip-rule="evenodd" d="M40.5537 38.8289V51.3894L65.3187 45.1067C66.9862 44.6675 71.0434 43.1539 71.6861 41.0934C71.7911 40.7567 71.775 40.4964 71.775 40.1554V28.556C71.6436 30.4737 68.4744 32.396 62.3352 33.8106L40.5537 38.8289Z" fill="url(#paint3_linear_1215_29245)"/>
<path fill-rule="evenodd" clip-rule="evenodd" d="M0.368652 28.6919L22.0764 23.5624C34.0159 20.7407 52.8425 20.7384 63.9137 23.557C74.9846 26.3748 74.2891 31.0561 62.3352 33.8105L40.367 38.8721L0.368652 28.6919Z" fill="#281692"/>
<path fill-rule="evenodd" clip-rule="evenodd" d="M40.553 17.9801V30.5431L0.368652 20.2733V7.84399L40.367 18.0233L40.553 17.9801Z" fill="url(#paint4_linear_1215_29245)"/>
<path fill-rule="evenodd" clip-rule="evenodd" d="M40.5537 17.9812V30.542L65.3187 24.2589C66.9862 23.8201 71.0434 22.3065 71.6861 20.2459C71.7911 19.909 71.775 19.6486 71.775 19.3079V7.70837C71.6436 9.62609 68.4744 11.5483 62.3352 12.9631L40.5537 17.9812Z" fill="url(#paint5_linear_1215_29245)"/>
<path fill-rule="evenodd" clip-rule="evenodd" d="M0.368652 7.84518L22.0764 2.71568C34.0159 -0.105969 52.8425 -0.108279 63.9137 2.71028C74.9846 5.52806 74.2891 10.2094 62.3352 12.9639L40.367 18.0253L0.368652 7.84518Z" fill="url(#paint6_linear_1215_29245)"/>
<defs>
<linearGradient id="paint0_linear_1215_29245" x1="0.368652" y1="56.4579" x2="40.553" y2="67.1724" gradientUnits="userSpaceOnUse">
<stop stop-color="#1E69FF"/>
<stop offset="0.404396" stop-color="#4F5BFF"/>
<stop offset="0.922418" stop-color="#A451FF"/>
</linearGradient>
<linearGradient id="paint1_linear_1215_29245" x1="74.2862" y1="53.5107" x2="44.3778" y2="72.3179" gradientUnits="userSpaceOnUse">
<stop stop-color="#001D5D"/>
<stop offset="0.404396" stop-color="#0D30A5"/>
<stop offset="0.922418" stop-color="#1D69FE"/>
</linearGradient>
<linearGradient id="paint2_linear_1215_29245" x1="0.368652" y1="35.8412" x2="40.553" y2="46.5559" gradientUnits="userSpaceOnUse">
<stop stop-color="#1E69FF"/>
<stop offset="0.404396" stop-color="#4F5BFF"/>
<stop offset="0.922418" stop-color="#A451FF"/>
</linearGradient>
<linearGradient id="paint3_linear_1215_29245" x1="74.2862" y1="32.8954" x2="44.3771" y2="51.7022" gradientUnits="userSpaceOnUse">
<stop stop-color="#001D5D"/>
<stop offset="0.404396" stop-color="#0D30A5"/>
<stop offset="0.922418" stop-color="#1D69FE"/>
</linearGradient>
<linearGradient id="paint4_linear_1215_29245" x1="0.368652" y1="14.9946" x2="40.553" y2="25.7094" gradientUnits="userSpaceOnUse">
<stop stop-color="#1E69FF"/>
<stop offset="0.404396" stop-color="#4F5BFF"/>
<stop offset="0.922418" stop-color="#A451FF"/>
</linearGradient>
<linearGradient id="paint5_linear_1215_29245" x1="74.2862" y1="12.0478" x2="44.3771" y2="30.8547" gradientUnits="userSpaceOnUse">
<stop stop-color="#001D5D"/>
<stop offset="0.404396" stop-color="#0D30A5"/>
<stop offset="0.922418" stop-color="#1D69FE"/>
</linearGradient>
<linearGradient id="paint6_linear_1215_29245" x1="77.5215" y1="3.90989" x2="56.5452" y2="43.4363" gradientUnits="userSpaceOnUse">
<stop stop-color="#1F69FF"/>
<stop offset="0.404396" stop-color="#355EFF"/>
<stop offset="0.922418" stop-color="#A051FF"/>
</linearGradient>
</defs>
</svg>
