<svg width="299" height="73" viewBox="0 0 299 73" fill="none" xmlns="http://www.w3.org/2000/svg">
<g clip-path="url(#clip0_1060_28667)">
<path d="M113.302 54.8079H100.762V17.4342H113.666C117.004 17.3449 120.309 18.1188 123.261 19.6808C125.875 21.1676 127.989 23.3972 129.334 26.0869C130.839 29.2074 131.578 32.6422 131.489 36.1058C131.583 39.5733 130.833 43.0116 129.303 46.1248C127.968 48.8369 125.854 51.0886 123.231 52.5916C120.223 54.1467 116.868 54.9094 113.484 54.8079H113.302ZM107.411 48.9483H112.907C115.169 49.036 117.416 48.5448 119.435 47.5214C121.173 46.5595 122.548 45.0563 123.352 43.2405C124.294 40.9836 124.74 38.5502 124.658 36.1058C124.746 33.661 124.3 31.2264 123.352 28.9711C122.55 27.1713 121.187 25.6799 119.466 24.7207C117.505 23.7148 115.322 23.2238 113.12 23.2937H107.351V48.9483H107.411Z" fill="white"/>
<path d="M143.38 55.3884C141.736 55.422 140.104 55.0902 138.603 54.4168C137.242 53.8236 136.085 52.8416 135.276 51.5931C134.415 50.2017 133.984 48.5852 134.037 46.9478C133.991 45.5884 134.292 44.2399 134.913 43.0311C135.481 42.0068 136.304 41.1487 137.302 40.5414C138.362 39.9006 139.515 39.4294 140.719 39.1448C142.007 38.799 143.322 38.5654 144.65 38.4465L148.611 37.9607C149.392 37.9002 150.153 37.6835 150.849 37.3231C151.074 37.1687 151.255 36.9595 151.377 36.7151C151.498 36.4708 151.556 36.1994 151.545 35.9264C151.581 35.3392 151.492 34.751 151.283 34.2012C151.074 33.6514 150.751 33.1526 150.335 32.7384C149.351 31.9287 148.096 31.5268 146.827 31.6151C145.47 31.5376 144.124 31.8994 142.987 32.6474C142.115 33.2696 141.459 34.151 141.112 35.1674L135.065 34.2869C135.42 32.6079 136.201 31.0495 137.333 29.763C138.472 28.5917 139.87 27.7073 141.415 27.1822C143.131 26.5672 144.945 26.2689 146.767 26.3018C148.112 26.2986 149.453 26.4618 150.758 26.7876C152.063 27.0701 153.304 27.5953 154.417 28.336C155.554 29.0967 156.471 30.1437 157.078 31.3722C157.815 32.8162 158.169 34.4265 158.106 36.0479V54.7811H151.847V51.0163H151.605C150.683 52.8067 149.115 54.1754 147.22 54.8418C145.995 55.2642 144.706 55.4697 143.41 55.4491L143.38 55.3884ZM145.104 50.5305C146.29 50.5529 147.464 50.2818 148.521 49.7411C149.444 49.2511 150.225 48.5293 150.789 47.6461C151.304 46.773 151.576 45.7767 151.575 44.7617V41.4523C151.257 41.6815 150.897 41.8465 150.516 41.9381C149.979 42.0978 149.434 42.2295 148.884 42.3328C148.279 42.3328 147.674 42.5453 147.069 42.606L145.527 42.8186C144.628 42.9437 143.746 43.1677 142.896 43.4865C142.182 43.7441 141.546 44.1835 141.052 44.7617C140.577 45.3521 140.34 46.0995 140.387 46.8567C140.359 47.3924 140.466 47.9265 140.699 48.4095C140.932 48.8925 141.282 49.3087 141.717 49.6196C142.726 50.2664 143.908 50.5845 145.104 50.5305Z" fill="white"/>
<path d="M176.297 26.6607V31.7527H160.332V26.6607H176.297ZM164.27 19.9622H170.825V46.2409C170.783 46.9402 170.918 47.6388 171.216 48.2717C171.453 48.7059 171.837 49.0394 172.298 49.2112C172.767 49.3971 173.268 49.4897 173.772 49.484C174.152 49.5177 174.534 49.5177 174.914 49.484L175.696 49.3022L176.808 54.4549C175.573 54.8969 174.271 55.1225 172.96 55.1217C171.44 55.1945 169.922 54.9361 168.51 54.3639C167.277 53.8239 166.23 52.9273 165.503 51.7876C164.698 50.4805 164.3 48.9603 164.361 47.423V20.1441L164.27 19.9622Z" fill="white"/>
<path d="M187.513 55.3882C185.853 55.4279 184.205 55.0967 182.691 54.4191C181.303 53.8372 180.123 52.8562 179.303 51.6026C178.443 50.2122 178.018 48.5995 178.082 46.9692C178.027 45.6159 178.321 44.271 178.937 43.0625C179.527 42.054 180.354 41.2021 181.348 40.5792C182.418 39.9399 183.581 39.4699 184.797 39.1861C186.097 38.8438 187.424 38.6108 188.764 38.4896L192.793 38.005C193.579 37.9356 194.345 37.7199 195.051 37.369C195.278 37.2151 195.461 37.0064 195.584 36.7626C195.707 36.5189 195.765 36.2482 195.753 35.9759C195.786 35.388 195.691 34.7999 195.475 34.2513C195.259 33.7028 194.928 33.2065 194.502 32.7961C193.514 31.98 192.244 31.5781 190.962 31.6756C189.602 31.5984 188.253 31.9596 187.116 32.7052C186.237 33.334 185.567 34.2094 185.193 35.2188L179.09 34.3406C179.519 32.739 180.348 31.2705 181.501 30.0705C182.655 28.9083 184.065 28.0272 185.621 27.4963C187.354 26.8867 189.184 26.5893 191.023 26.6181C192.391 26.6131 193.754 26.7758 195.082 27.1027C196.396 27.3955 197.646 27.9185 198.775 28.6472C199.914 29.4143 200.839 30.4564 201.46 31.6756C202.18 33.1235 202.526 34.726 202.468 36.3393V55.0248H196.089V51.0272H195.875C195.445 51.8515 194.865 52.5906 194.166 53.2077C193.374 53.9345 192.439 54.4912 191.42 54.843C190.194 55.267 188.902 55.4721 187.605 55.4488L187.513 55.3882ZM189.222 50.5427C190.43 50.5689 191.625 50.2984 192.701 49.7553C193.622 49.2624 194.4 48.5428 194.96 47.6657C195.48 46.7949 195.754 45.801 195.753 44.7887V41.4877C195.441 41.7128 195.089 41.8772 194.716 41.9722L193.037 42.3659L191.236 42.6385L189.68 42.8505C188.772 42.9715 187.881 43.1951 187.025 43.5168C186.304 43.7737 185.662 44.2119 185.163 44.7887C184.63 45.5261 184.399 46.4372 184.518 47.3371C184.637 48.237 185.097 49.0583 185.804 49.6341C186.828 50.2653 188.017 50.5814 189.222 50.5427Z" fill="white"/>
<path d="M213.247 17.4272V54.8168H206.593V17.4272H213.247Z" fill="white"/>
<path d="M225.717 55.3886C224.081 55.4221 222.458 55.0912 220.964 54.4194C219.61 53.8278 218.459 52.8483 217.654 51.603C216.797 50.2152 216.368 48.6028 216.421 46.9696C216.375 45.6137 216.675 44.2686 217.293 43.0629C217.857 42.0412 218.677 41.1853 219.67 40.5796C220.722 39.9354 221.87 39.4651 223.07 39.1865C224.351 38.8416 225.66 38.6086 226.981 38.49L230.923 38.0055C231.699 37.9405 232.455 37.7245 233.149 37.3695C233.372 37.2155 233.553 37.0068 233.674 36.7631C233.795 36.5194 233.853 36.2487 233.841 35.9764C233.877 35.3907 233.788 34.804 233.581 34.2556C233.373 33.7072 233.052 33.2097 232.638 32.7966C231.659 31.9889 230.41 31.5881 229.147 31.6761C227.797 31.5945 226.456 31.9557 225.326 32.7057C224.46 33.3345 223.799 34.2099 223.431 35.2193L217.413 34.3411C217.848 32.7375 218.676 31.2693 219.82 30.071C220.949 28.8963 222.342 28.0132 223.882 27.4969C225.59 26.8834 227.394 26.5859 229.208 26.6186C230.546 26.6155 231.88 26.7782 233.179 27.1032C234.478 27.385 235.712 27.9088 236.82 28.6477C237.95 29.4065 238.863 30.4507 239.467 31.6761C240.201 33.1164 240.553 34.7226 240.49 36.3398V55.0252H234.082V51.0276H233.841C232.924 52.8135 231.363 54.1787 229.478 54.8434C228.259 55.2647 226.976 55.4697 225.687 55.4491L225.717 55.3886ZM227.432 50.5431C228.613 50.5655 229.78 50.2951 230.832 49.7557C231.748 49.2745 232.518 48.5524 233.059 47.6661C233.594 46.8034 233.875 45.806 233.871 44.7891V41.4882C233.555 41.7168 233.197 41.8813 232.818 41.9727C232.284 42.132 231.741 42.2634 231.193 42.3664C230.592 42.3664 229.99 42.5784 229.388 42.6389L227.854 42.8509C226.959 42.972 226.081 43.1955 225.236 43.5172C224.525 43.7741 223.893 44.2124 223.401 44.7891C222.871 45.5276 222.645 46.443 222.768 47.3452C222.891 48.2475 223.355 49.0673 224.063 49.6345C225.066 50.2797 226.243 50.597 227.432 50.5431Z" fill="white"/>
<path d="M251.475 38.3552V54.8168H244.933V26.6709H251.204V31.4481H251.535C252.13 29.9142 253.183 28.6058 254.55 27.7054C256.122 26.7239 257.948 26.2367 259.795 26.3058C261.552 26.2696 263.288 26.6997 264.829 27.5533C266.261 28.3944 267.414 29.6435 268.145 31.1438C269 32.9232 269.404 34.8887 269.321 36.8643V54.7559H262.749V37.8988C262.847 36.3002 262.341 34.7235 261.333 33.4868C260.821 32.9493 260.201 32.5297 259.514 32.2566C258.827 31.9835 258.09 31.8634 257.353 31.9045C256.3 31.8879 255.26 32.1501 254.339 32.6652C253.459 33.1883 252.739 33.9464 252.259 34.856C251.739 35.925 251.481 37.104 251.505 38.2944L251.475 38.3552Z" fill="white"/>
<path d="M284.134 55.4451C281.999 55.4966 279.897 54.9025 278.099 53.7392C276.308 52.5008 274.897 50.7806 274.025 48.7737C271.992 43.714 271.992 38.0536 274.025 32.9939C274.901 30.9879 276.338 29.2835 278.159 28.0893C279.906 26.9924 281.926 26.4217 283.983 26.4443C285.367 26.393 286.742 26.6749 287.997 27.2668C288.955 27.7626 289.807 28.4461 290.501 29.2774C291.073 29.9444 291.56 30.6813 291.95 31.4707H292.221V17.4272H298.8V54.9273H292.342V50.5101H291.95C291.54 51.2856 291.044 52.0112 290.471 52.673C289.771 53.4956 288.908 54.16 287.936 54.6226C286.692 55.212 285.327 55.4939 283.953 55.4451H284.134ZM285.975 49.9923C287.254 50.0351 288.51 49.6376 289.536 48.8651C290.538 48.0706 291.309 47.0183 291.769 45.8188C292.302 44.283 292.557 42.6631 292.523 41.0361C292.562 39.4187 292.307 37.8079 291.769 36.2839C291.331 35.0805 290.568 34.0251 289.566 33.2376C288.518 32.4854 287.26 32.0905 285.975 32.1104C284.658 32.0638 283.366 32.4841 282.324 33.2985C281.316 34.0876 280.544 35.1416 280.091 36.3448C279.585 37.8446 279.34 39.4215 279.366 41.0056C279.336 42.6025 279.592 44.1917 280.121 45.697C280.535 46.9715 281.311 48.0946 282.354 48.926C283.384 49.7405 284.667 50.1613 285.975 50.1141V49.9923Z" fill="white"/>
<path fill-rule="evenodd" clip-rule="evenodd" d="M45.4161 58.6794V72.8779L0 61.2711V47.2236L45.2056 58.7283L45.4161 58.6794Z" fill="url(#paint0_linear_1060_28667)"/>
<path fill-rule="evenodd" clip-rule="evenodd" d="M45.4158 58.6795V72.8754L73.405 65.7753C75.2894 65.2793 79.8747 63.5687 80.6012 61.2398C80.72 60.8591 80.7017 60.5639 80.7017 60.1797V47.0701C80.5532 49.2374 76.9713 51.41 70.0327 53.0089L45.4158 58.6795Z" fill="url(#paint1_linear_1060_28667)"/>
<path fill-rule="evenodd" clip-rule="evenodd" d="M0 47.223L24.5339 41.4257C38.0278 38.2367 59.3055 38.2341 71.8179 41.4196C84.3302 44.6042 83.5443 49.8951 70.0339 53.0081L45.2057 58.7286L0 47.223Z" fill="#281692"/>
<path fill-rule="evenodd" clip-rule="evenodd" d="M45.4161 39.2931V53.4917L0 41.8849V27.8374L45.2056 39.342L45.4161 39.2931Z" fill="url(#paint2_linear_1060_28667)"/>
<path fill-rule="evenodd" clip-rule="evenodd" d="M45.4158 39.2944V53.4903L73.405 46.3893C75.2894 45.8933 79.8747 44.1826 80.6012 41.8538C80.72 41.473 80.7017 41.1788 80.7017 40.7937V27.6841C80.5532 29.8514 76.9713 32.024 70.0327 33.6228L45.4158 39.2944Z" fill="url(#paint3_linear_1060_28667)"/>
<path fill-rule="evenodd" clip-rule="evenodd" d="M0 27.838L24.5339 22.0407C38.0278 18.8517 59.3055 18.8491 71.8179 22.0346C84.3302 25.2193 83.5443 30.5101 70.0339 33.6231L45.2057 39.3436L0 27.838Z" fill="#281692"/>
<path fill-rule="evenodd" clip-rule="evenodd" d="M45.4161 19.6454V33.844L0 22.2371V8.1897L45.2056 19.6943L45.4161 19.6454Z" fill="url(#paint4_linear_1060_28667)"/>
<path fill-rule="evenodd" clip-rule="evenodd" d="M45.4158 19.6469V33.8429L73.405 26.7419C75.2894 26.2459 79.8747 24.5352 80.6012 22.2064C80.72 21.8256 80.7017 21.5314 80.7017 21.1463V8.03662C80.5532 10.204 76.9713 12.3765 70.0327 13.9754L45.4158 19.6469Z" fill="url(#paint5_linear_1060_28667)"/>
<path fill-rule="evenodd" clip-rule="evenodd" d="M0 8.19079L24.5339 2.39349C38.0278 -0.795506 59.3055 -0.798117 71.8179 2.38739C84.3302 5.57201 83.5443 10.8628 70.0339 13.9759L45.2057 19.6963L0 8.19079Z" fill="url(#paint6_linear_1060_28667)"/>
</g>
<defs>
<linearGradient id="paint0_linear_1060_28667" x1="-2.4379e-07" y1="55.3053" x2="45.416" y2="67.4149" gradientUnits="userSpaceOnUse">
<stop stop-color="#1E69FF"/>
<stop offset="0.404396" stop-color="#4F5BFF"/>
<stop offset="0.922418" stop-color="#A451FF"/>
</linearGradient>
<linearGradient id="paint1_linear_1060_28667" x1="83.5399" y1="51.9742" x2="49.7374" y2="73.2299" gradientUnits="userSpaceOnUse">
<stop stop-color="#001D5D"/>
<stop offset="0.404396" stop-color="#0D30A5"/>
<stop offset="0.922418" stop-color="#1D69FE"/>
</linearGradient>
<linearGradient id="paint2_linear_1060_28667" x1="-2.4379e-07" y1="35.919" x2="45.416" y2="48.0287" gradientUnits="userSpaceOnUse">
<stop stop-color="#1E69FF"/>
<stop offset="0.404396" stop-color="#4F5BFF"/>
<stop offset="0.922418" stop-color="#A451FF"/>
</linearGradient>
<linearGradient id="paint3_linear_1060_28667" x1="83.5399" y1="32.5884" x2="49.7367" y2="53.8438" gradientUnits="userSpaceOnUse">
<stop stop-color="#001D5D"/>
<stop offset="0.404396" stop-color="#0D30A5"/>
<stop offset="0.922418" stop-color="#1D69FE"/>
</linearGradient>
<linearGradient id="paint4_linear_1060_28667" x1="-2.4379e-07" y1="16.2713" x2="45.416" y2="28.381" gradientUnits="userSpaceOnUse">
<stop stop-color="#1E69FF"/>
<stop offset="0.404396" stop-color="#4F5BFF"/>
<stop offset="0.922418" stop-color="#A451FF"/>
</linearGradient>
<linearGradient id="paint5_linear_1060_28667" x1="83.5399" y1="12.941" x2="49.7367" y2="34.1963" gradientUnits="userSpaceOnUse">
<stop stop-color="#001D5D"/>
<stop offset="0.404396" stop-color="#0D30A5"/>
<stop offset="0.922418" stop-color="#1D69FE"/>
</linearGradient>
<linearGradient id="paint6_linear_1060_28667" x1="87.1975" y1="3.74318" x2="63.4902" y2="48.4153" gradientUnits="userSpaceOnUse">
<stop stop-color="#1F69FF"/>
<stop offset="0.404396" stop-color="#355EFF"/>
<stop offset="0.922418" stop-color="#A051FF"/>
</linearGradient>
<clipPath id="clip0_1060_28667">
<rect width="299" height="73" fill="white"/>
</clipPath>
</defs>
</svg>
