<svg width="20" height="20" viewBox="0 0 20 20" fill="none" xmlns="http://www.w3.org/2000/svg">
<mask id="mask0_958_77007" style="mask-type:luminance" maskUnits="userSpaceOnUse" x="2" y="2" width="16" height="16">
<path d="M17.6362 8.54545H10.1816V11.6364H14.4725C14.0725 13.6 12.3998 14.7273 10.1816 14.7273C7.56346 14.7273 5.45437 12.6182 5.45437 10C5.45437 7.38182 7.56346 5.27273 10.1816 5.27273C11.3089 5.27273 12.3271 5.67273 13.1271 6.32727L15.4544 4C14.0362 2.76364 12.218 2 10.1816 2C5.74528 2 2.18164 5.56364 2.18164 10C2.18164 14.4364 5.74528 18 10.1816 18C14.1816 18 17.818 15.0909 17.818 10C17.818 9.52727 17.7453 9.01818 17.6362 8.54545Z" fill="white"/>
</mask>
<g mask="url(#mask0_958_77007)">
<path d="M1.45703 14.7274V5.27283L7.63885 10.0001L1.45703 14.7274Z" fill="#FBBC05"/>
</g>
<mask id="mask1_958_77007" style="mask-type:luminance" maskUnits="userSpaceOnUse" x="2" y="2" width="16" height="16">
<path d="M17.6362 8.54545H10.1816V11.6364H14.4725C14.0725 13.6 12.3998 14.7273 10.1816 14.7273C7.56346 14.7273 5.45437 12.6182 5.45437 10C5.45437 7.38182 7.56346 5.27273 10.1816 5.27273C11.3089 5.27273 12.3271 5.67273 13.1271 6.32727L15.4544 4C14.0362 2.76364 12.218 2 10.1816 2C5.74528 2 2.18164 5.56364 2.18164 10C2.18164 14.4364 5.74528 18 10.1816 18C14.1816 18 17.818 15.0909 17.818 10C17.818 9.52727 17.7453 9.01818 17.6362 8.54545Z" fill="white"/>
</mask>
<g mask="url(#mask1_958_77007)">
<path d="M1.45703 5.27283L7.63885 10.0001L10.1843 7.78192L18.9116 6.36374V1.27283H1.45703V5.27283Z" fill="#EA4335"/>
</g>
<mask id="mask2_958_77007" style="mask-type:luminance" maskUnits="userSpaceOnUse" x="2" y="2" width="16" height="16">
<path d="M17.6362 8.54545H10.1816V11.6364H14.4725C14.0725 13.6 12.3998 14.7273 10.1816 14.7273C7.56346 14.7273 5.45437 12.6182 5.45437 10C5.45437 7.38182 7.56346 5.27273 10.1816 5.27273C11.3089 5.27273 12.3271 5.67273 13.1271 6.32727L15.4544 4C14.0362 2.76364 12.218 2 10.1816 2C5.74528 2 2.18164 5.56364 2.18164 10C2.18164 14.4364 5.74528 18 10.1816 18C14.1816 18 17.818 15.0909 17.818 10C17.818 9.52727 17.7453 9.01818 17.6362 8.54545Z" fill="white"/>
</mask>
<g mask="url(#mask2_958_77007)">
<path d="M1.45703 14.7274L12.3661 6.36374L15.2389 6.72737L18.9116 1.27283V18.7274H1.45703V14.7274Z" fill="#34A853"/>
</g>
<mask id="mask3_958_77007" style="mask-type:luminance" maskUnits="userSpaceOnUse" x="2" y="2" width="16" height="16">
<path d="M17.6362 8.54545H10.1816V11.6364H14.4725C14.0725 13.6 12.3998 14.7273 10.1816 14.7273C7.56346 14.7273 5.45437 12.6182 5.45437 10C5.45437 7.38182 7.56346 5.27273 10.1816 5.27273C11.3089 5.27273 12.3271 5.67273 13.1271 6.32727L15.4544 4C14.0362 2.76364 12.218 2 10.1816 2C5.74528 2 2.18164 5.56364 2.18164 10C2.18164 14.4364 5.74528 18 10.1816 18C14.1816 18 17.818 15.0909 17.818 10C17.818 9.52727 17.7453 9.01818 17.6362 8.54545Z" fill="white"/>
</mask>
<g mask="url(#mask3_958_77007)">
<path d="M18.9089 18.7274L7.63619 10.0001L6.18164 8.90919L18.9089 5.27283V18.7274Z" fill="#4285F4"/>
</g>
</svg>
