<svg width="24" height="24" viewBox="0 0 24 24" fill="none" xmlns="http://www.w3.org/2000/svg">
<path opacity="0.2" d="M9 22.5L10.5 15L4.5 12.75L15 1.5L13.5 9L19.5 11.25L9 22.5Z" fill="white"/>
<path d="M20.2308 11.0784C20.2024 10.9582 20.1448 10.8469 20.063 10.7543C19.9812 10.6618 19.8779 10.5908 19.7621 10.5478L14.3611 8.52188L15.7355 1.64719C15.7666 1.48746 15.745 1.32194 15.6738 1.17561C15.6026 1.02928 15.4857 0.910076 15.3408 0.835989C15.1959 0.761903 15.0309 0.736953 14.8705 0.764904C14.7102 0.792855 14.5634 0.87219 14.4521 0.990938L3.95208 12.2409C3.8668 12.3308 3.80511 12.4404 3.77252 12.5599C3.73992 12.6794 3.73744 12.8052 3.7653 12.9259C3.79316 13.0466 3.85048 13.1585 3.93215 13.2517C4.01382 13.3448 4.1173 13.4163 4.23333 13.4597L9.63614 15.4856L8.26552 22.3528C8.2344 22.5125 8.25607 22.6781 8.32727 22.8244C8.39848 22.9707 8.51534 23.0899 8.66023 23.164C8.80512 23.2381 8.97018 23.263 9.1305 23.2351C9.29081 23.2071 9.43769 23.1278 9.54896 23.0091L20.049 11.7591C20.1327 11.6692 20.1931 11.5601 20.2248 11.4414C20.2565 11.3228 20.2586 11.1981 20.2308 11.0784ZM10.254 20.0625L11.2355 15.1519C11.2706 14.9777 11.2428 14.7967 11.157 14.6412C11.0711 14.4856 10.9328 14.3656 10.7668 14.3025L5.81302 12.4416L13.7461 3.94219L12.7655 8.85281C12.7304 9.02697 12.7582 9.20795 12.8441 9.3635C12.9299 9.51905 13.0682 9.63907 13.2343 9.70219L18.1843 11.5584L10.254 20.0625Z" fill="white"/>
</svg>
