<svg width="24" height="24" viewBox="0 0 24 24" fill="none" xmlns="http://www.w3.org/2000/svg">
<path opacity="0.2" d="M12.75 12C12.7503 12.1234 12.7193 12.2448 12.6597 12.3529C12.6002 12.461 12.5141 12.5521 12.4097 12.6178L4.14188 17.8819C4.03029 17.9534 3.90156 17.9938 3.76909 17.9987C3.63661 18.0036 3.50524 17.973 3.38865 17.9099C3.27206 17.8468 3.17451 17.7536 3.10616 17.64C3.0378 17.5265 3.00114 17.3966 3 17.2641V6.73594C3.00114 6.60338 3.0378 6.47355 3.10616 6.35997C3.17451 6.24639 3.27206 6.15321 3.38865 6.09012C3.50524 6.02704 3.63661 5.99637 3.76909 6.00129C3.90156 6.00622 4.03029 6.04656 4.14188 6.11813L12.4097 11.3822C12.5141 11.4479 12.6002 11.539 12.6597 11.6471C12.7193 11.7552 12.7503 11.8766 12.75 12ZM22.1597 11.3822L13.8919 6.11813C13.7803 6.04656 13.6516 6.00622 13.5191 6.00129C13.3866 5.99637 13.2552 6.02704 13.1387 6.09012C13.0221 6.15321 12.9245 6.24639 12.8562 6.35997C12.7878 6.47355 12.7511 6.60338 12.75 6.73594V17.2641C12.7511 17.3966 12.7878 17.5265 12.8562 17.64C12.9245 17.7536 13.0221 17.8468 13.1387 17.9099C13.2552 17.973 13.3866 18.0036 13.5191 17.9987C13.6516 17.9938 13.7803 17.9534 13.8919 17.8819L22.1597 12.6178C22.2639 12.5519 22.3497 12.4606 22.4091 12.3526C22.4686 12.2446 22.4997 12.1233 22.4997 12C22.4997 11.8767 22.4686 11.7554 22.4091 11.6474C22.3497 11.5394 22.2639 11.4482 22.1597 11.3822Z" fill="white"/>
<path d="M22.5628 10.7494L14.295 5.48438C14.07 5.34054 13.8105 5.25973 13.5437 5.2504C13.2768 5.24107 13.0123 5.30355 12.7778 5.43133C12.5434 5.55911 12.3475 5.74749 12.2107 5.97681C12.0738 6.20613 12.0011 6.46797 12 6.735V10.2319L4.545 5.48438C4.32002 5.34054 4.06054 5.25973 3.79367 5.2504C3.5268 5.24107 3.26232 5.30355 3.02784 5.43133C2.79336 5.55911 2.59748 5.74749 2.46066 5.97681C2.32383 6.20613 2.25108 6.46797 2.25 6.735V17.265C2.25139 17.5319 2.32433 17.7936 2.46122 18.0227C2.59811 18.2518 2.79394 18.4401 3.02832 18.5678C3.26269 18.6955 3.52703 18.758 3.79378 18.7489C4.06054 18.7397 4.31996 18.6591 4.545 18.5156L12 13.7681V17.265C12.0014 17.5319 12.0743 17.7936 12.2112 18.0227C12.3481 18.2518 12.5439 18.4401 12.7783 18.5678C13.0127 18.6955 13.277 18.758 13.5438 18.7489C13.8105 18.7397 14.07 18.6591 14.295 18.5156L22.5628 13.2506C22.7735 13.1169 22.9469 12.9322 23.0671 12.7136C23.1873 12.4949 23.2503 12.2495 23.2503 12C23.2503 11.7505 23.1873 11.5051 23.0671 11.2864C22.9469 11.0678 22.7735 10.8831 22.5628 10.7494ZM3.75 17.2444V6.75657L11.9831 12L3.75 17.2444ZM13.5 17.2444V6.75657L21.7331 12L13.5 17.2444Z" fill="white"/>
</svg>
