<svg width="157" height="157" viewBox="0 0 157 157" fill="none" xmlns="http://www.w3.org/2000/svg">
<path fill-rule="evenodd" clip-rule="evenodd" d="M14.323 63.1925C13.8886 63.4607 13.2964 63.9465 13.0069 64.2719C12.4999 64.8416 12.4778 65.2916 12.4068 76.4098C12.3249 89.2092 12.3399 89.3409 13.9781 90.3398C14.8088 90.8466 15.2855 90.8715 24.2166 90.8723L33.5841 90.8734L35.9593 92.5845C38.1416 94.1565 38.4441 94.2959 39.6778 94.2959C40.7617 94.2959 41.0761 94.1918 41.3092 93.7567C41.5086 93.3835 41.5725 89.9026 41.5158 82.4547C41.4369 72.0615 41.4153 71.6669 40.8912 70.9652C39.8471 69.5669 39.0625 69.1881 36.8916 69.0341L34.8536 68.8895L34.722 67.0332C34.5743 64.9522 34.1 64.0107 32.7995 63.2175C32.0119 62.7373 31.4208 62.7043 23.5354 62.7043C15.7948 62.7043 15.0486 62.7441 14.323 63.1925ZM111.033 63.4721C110.176 64.3298 110.078 65.0014 110.649 66.1062C111.077 66.9336 111.528 67.1782 112.625 67.1782C113.662 67.1782 114.464 66.4263 114.648 65.2816C114.782 64.4386 114.695 64.1979 114.002 63.5044C112.97 62.4724 112.043 62.4624 111.033 63.4721ZM31.6668 66.2783C31.8724 66.8138 31.8724 68.0692 31.6668 68.6047C31.5276 68.9675 30.738 69.0212 25.534 69.0212C21.2391 69.0212 19.4722 69.1099 19.245 69.3371C19.0153 69.5669 18.9292 71.5673 18.9292 76.6873C18.9292 80.5562 19.001 83.909 19.0889 84.1381C19.2295 84.5046 20.1618 84.5546 26.8537 84.5546C31.0365 84.5546 34.4827 84.5251 34.5122 84.4888C34.5414 84.4524 34.6304 81.698 34.7096 78.3675L34.8536 72.3122H36.5645H38.2753L38.3446 81.1978C38.4011 88.4595 38.3498 90.0834 38.0632 90.0834C37.7897 90.0834 34.952 88.1623 34.8717 87.9227C34.8617 87.8927 30.4711 87.8039 25.1147 87.7252L15.3758 87.5823L15.3068 77.0517C15.2689 71.2598 15.295 66.3726 15.3645 66.1915C15.4619 65.9374 17.3296 65.8618 23.4991 65.8618C30.5585 65.8618 31.526 65.9111 31.6668 66.2783ZM90.3915 69.4219C88.7566 70.1922 88.5134 70.2072 88.3412 69.5477C88.2212 69.0883 87.982 69.0212 86.4642 69.0212H84.7246L84.7942 76.7221L84.8641 84.4229H86.5749H88.2858L88.4174 79.1982L88.549 73.9734L90.4574 73.1718L92.3655 72.3704V70.564C92.3655 68.5083 92.35 68.4991 90.3915 69.4219ZM56.3569 69.5206C53.7586 70.4184 52.3708 72.3961 52.3661 75.2082C52.3642 76.3856 52.5204 77.0622 52.9798 77.8652L53.5956 78.9428L53.0513 79.69C52.374 80.6202 52.3347 82.8944 52.9787 83.8774C53.3846 84.4972 53.3807 84.552 52.9091 84.8042C52.1577 85.2065 51.3035 87.1916 51.3101 88.5211C51.327 91.9041 53.9503 94.0177 58.4112 94.2409C62.0386 94.4225 64.0873 93.5653 65.2082 91.3976C65.7122 90.4232 65.7984 89.9278 65.7 88.5817C65.4637 85.3536 64.0509 84.1117 59.4687 83.1037C56.2164 82.3883 55.6222 82.0561 55.8651 81.0885C56.0138 80.4959 56.1135 80.4738 58.6401 80.4738C61.1247 80.4738 61.3204 80.4327 62.4025 79.6824C64.058 78.5342 65.0668 76.4738 64.9154 74.55C64.8526 73.7536 64.7129 72.8945 64.605 72.6412C64.447 72.27 64.5422 72.1805 65.095 72.1805C65.7583 72.1805 65.781 72.1276 65.781 70.6008V69.0212L61.7672 69.0299C58.576 69.0367 57.467 69.1373 56.3569 69.5206ZM72.8407 69.3729C70.5741 70.0119 68.542 72.0778 67.8909 74.4047C67.4151 76.1033 67.6538 79.4009 68.3506 80.755C69.0532 82.1206 70.6862 83.5997 71.998 84.0586C72.5598 84.255 73.9149 84.4074 75.0094 84.3971C78.2451 84.3669 80.2376 83.0194 81.6109 79.9327C82.415 78.1251 82.4005 75.214 81.5777 73.3005C80.9313 71.7982 79.3984 70.2383 77.9898 69.6496C76.6796 69.102 74.2619 68.972 72.8407 69.3729ZM98.6356 69.3885C97.1244 69.7955 95.7746 70.7938 94.957 72.1092C94.4495 72.9253 94.3398 73.4608 94.3398 75.1195C94.3398 76.8134 94.4372 77.2686 94.9472 77.9597L95.5546 78.7825L95.0132 79.6592C94.3797 80.6841 94.2966 82.7569 94.8486 83.7542C95.1793 84.3519 95.1392 84.4817 94.3317 85.4252C93.8237 86.0187 93.3833 86.8799 93.2828 87.4759C92.6485 91.2293 95.3969 93.9752 100.057 94.2452C104.984 94.5303 107.632 92.7238 107.632 89.0778C107.632 85.5319 105.747 83.8174 100.944 82.9936C98.8974 82.6424 97.6299 82.0871 97.6299 81.5416C97.6299 80.5278 97.8594 80.4348 100.077 80.5512C102.493 80.6781 103.491 80.3908 104.972 79.1424C105.463 78.7282 106.082 77.9105 106.347 77.3252C106.871 76.1734 106.994 73.9295 106.592 72.8721C106.366 72.2774 106.411 72.205 107.052 72.131C107.648 72.062 107.777 71.9043 107.849 71.1569C107.896 70.6661 107.864 69.985 107.778 69.6431C107.623 69.0235 107.607 69.0212 103.745 69.0388C101.513 69.0491 99.3445 69.1976 98.6356 69.3885ZM110.791 76.7879V84.5546H112.501H114.212V76.7879V69.0212H112.501H110.791V76.7879ZM121.582 69.2787C120.931 69.3958 119.892 69.696 119.274 69.9453L118.15 70.3986L118.32 71.7503C118.413 72.4938 118.572 73.1936 118.673 73.3052C118.774 73.4171 119.44 73.2489 120.153 72.9314C121.016 72.5478 122.01 72.3472 123.118 72.3332C124.632 72.314 124.845 72.3803 125.422 73.0509C125.771 73.4571 126.057 74.0198 126.057 74.3015C126.057 74.7506 125.866 74.8133 124.501 74.8133C122.678 74.8133 120.085 75.5568 119.04 76.379C117.797 77.3568 117.374 78.2346 117.373 79.8424C117.369 82.6919 119.39 84.3282 122.966 84.3719C124.014 84.3848 125.127 84.2555 125.438 84.0846C125.9 83.8313 126.033 83.8485 126.159 84.1771C126.28 84.4917 126.674 84.5628 127.962 84.5014L129.61 84.4229L129.686 79.4207C129.733 76.3616 129.648 73.9582 129.469 73.2336C129.098 71.7324 128.141 70.4711 126.897 69.8397C125.733 69.2494 123.219 68.9838 121.582 69.2787ZM137.198 69.2852C135.09 69.7231 134.019 70.5379 133.305 72.2474C132.776 73.5138 132.802 74.4389 133.402 75.7598C134.04 77.1667 135.267 77.9013 137.825 78.4097C140.152 78.8725 141.06 79.3383 141.06 80.0699C141.06 81.832 136.392 81.8057 133.887 80.0299L133.164 79.5165V81.4666C133.164 83.7142 133.199 83.7495 136.043 84.3092C138.078 84.7097 140.712 84.4798 142.077 83.7829C144.064 82.7693 145.013 80.751 144.469 78.6966C143.933 76.6718 142.661 75.7866 139.114 74.9699C137.114 74.5097 136.585 74.198 136.585 73.4795C136.585 72.7468 137.621 72.18 138.947 72.1863C140.139 72.1921 142.152 72.9211 142.491 73.4695C142.59 73.6293 142.771 73.7602 142.893 73.7602C143.128 73.7602 143.955 71.5576 143.955 70.9344C143.955 70.3986 141.408 69.3437 139.744 69.1905C138.948 69.117 137.802 69.1597 137.198 69.2852ZM31.7671 76.8537L31.839 81.3953H26.9635H22.0877V76.7818V72.1687L26.8914 72.2403L31.695 72.3122L31.7671 76.8537ZM59.8327 72.5475C63.1122 73.9182 61.221 78.3702 57.765 77.4158C55.3376 76.7455 55.0918 73.1491 57.4274 72.4743C58.6277 72.1273 58.8432 72.1339 59.8327 72.5475ZM102.381 72.7768C103.484 73.4656 103.744 75.3843 102.882 76.4801C101.305 78.486 97.6299 77.4282 97.6299 74.9681C97.6299 72.809 100.393 71.5347 102.381 72.7768ZM77.0013 73.2615C78.0587 74.2496 78.4582 75.2622 78.4503 76.9337C78.4413 78.768 77.917 79.9088 76.7574 80.6159C74.1918 82.1809 71.0599 80.0802 71.0502 76.7879C71.0422 74.1261 72.76 72.299 75.0682 72.5141C75.9171 72.5933 76.5461 72.8366 77.0013 73.2615ZM126.057 79.1369V80.8279L125.104 81.1422C124.015 81.5019 122.035 81.3537 121.451 80.8687C120.942 80.4461 120.94 78.9231 121.448 78.5013C122.096 77.9639 123.747 77.47 124.938 77.4577L126.057 77.4461V79.1369ZM102.45 86.6929C103.605 87.2885 104.21 88.0522 104.21 88.9155C104.21 90.2899 103.481 90.935 101.766 91.077C99.7606 91.2434 98.5926 90.9846 97.6088 90.1569C96.8411 89.5108 96.7915 89.3677 96.9091 88.1425C97.0046 87.1502 97.2027 86.6798 97.7093 86.2438C98.36 85.684 98.4425 85.6767 100.128 86.0303C101.088 86.2314 102.133 86.5297 102.45 86.6929ZM59.5537 86.4036C61.8904 87.1255 62.8055 88.3508 62.1958 89.94C61.7448 91.1157 58.3289 91.5635 56.5874 90.6753C54.6819 89.7035 54.2921 88.1452 55.5531 86.5415C56.2106 85.7054 57.1845 85.6717 59.5537 86.4036Z" fill="white"/>
</svg>
