<svg width="157" height="157" viewBox="0 0 157 157" fill="none" xmlns="http://www.w3.org/2000/svg">
<path fill-rule="evenodd" clip-rule="evenodd" d="M2.75941 64.9251C1.66838 65.529 0.938327 67.1844 0.561911 69.9076C0.308266 71.7419 0.46268 71.9066 2.43666 71.9066H4.1461L4.42277 73.6095C4.57516 74.5461 4.86982 76.2205 5.07766 77.3305C5.28548 78.4404 5.62341 80.2568 5.82873 81.3668C6.72965 86.2389 7.97306 90.8829 8.70918 92.125C9.32102 93.1569 10.2073 93.3501 14.3172 93.346C18.313 93.3425 19.1524 93.2285 19.1524 92.6894C19.1524 92.4977 19.2446 92.3405 19.3572 92.3405C19.8931 92.3405 21.42 85.2644 21.453 82.6281C21.4714 81.1486 21.4795 81.1317 21.8114 81.8713C21.9982 82.2876 22.224 83.1957 22.3136 83.8895C22.5465 85.6967 23.4148 89.7239 23.8717 91.1161C24.5453 93.169 24.6602 93.2123 29.6804 93.3027L34.0815 93.3822L34.7044 92.7125C35.8988 91.4281 36.6783 88.0444 37.2599 81.619C37.461 79.3991 37.7365 76.9687 37.8727 76.2179C38.1452 74.7147 39.0196 72.6635 39.3878 72.6635C39.7286 72.6635 39.9702 71.7376 39.7833 71.1498C39.6326 70.6771 39.4002 70.6453 36.0832 70.6453C32.4127 70.6453 31.6305 70.8181 30.7759 71.8178C30.2993 72.3751 29.5951 74.2545 29.4662 75.3123C29.3651 76.1445 29.255 75.9606 28.786 74.1771C28.2502 72.138 27.6625 70.2843 27.2596 69.3615C26.5017 67.6261 26.4764 67.618 21.8479 67.618C17.7941 67.618 17.6511 67.6359 16.9405 68.2318C15.8001 69.1882 14.5954 73.9218 14.5957 77.444C14.5959 79.7757 14.1284 79.0953 13.7145 76.1617C13.2867 73.1309 12.8513 70.8146 12.4404 69.3839C12.2612 68.7596 12.0377 67.8812 11.9435 67.4316C11.8494 66.9823 11.6674 66.5499 11.5388 66.4707C11.4102 66.3918 11.3051 66.1241 11.3051 65.8764C11.3051 65.6286 11.0968 65.2379 10.8421 65.0083C10.4569 64.6609 9.78781 64.5923 6.8552 64.5996C4.51771 64.6057 3.13887 64.7152 2.75941 64.9251ZM48.9523 75.5096C48.8396 75.8025 49.7571 79.1173 50.2944 80.3577C50.4147 80.6352 50.9933 82.3198 51.5808 84.1014C52.168 85.8829 52.8089 87.5005 53.0054 87.6962C53.4835 88.173 54.9651 88.1483 55.4597 87.6556C55.6782 87.4377 55.9289 86.8133 56.0163 86.2681C56.1039 85.723 56.2697 85.277 56.3847 85.277C56.4997 85.277 56.6721 84.8617 56.7676 84.3544C56.8633 83.8471 57.0955 83.1375 57.2839 82.7777C57.4723 82.418 57.627 81.9742 57.628 81.7916C57.6288 81.6092 57.7544 81.2273 57.9071 80.943C58.1454 80.4992 58.3548 80.9321 59.3925 84.0146C60.057 85.9881 60.7579 87.7021 60.9501 87.8234C61.5165 88.1809 62.8771 88.084 63.3068 87.6556C63.5256 87.4377 63.7763 86.8133 63.8637 86.2681C63.951 85.723 64.1093 85.277 64.2154 85.277C64.3213 85.277 64.4879 84.8514 64.5854 84.331C64.6829 83.8108 64.8497 83.2714 64.9561 83.1327C65.0624 82.9939 65.2736 82.4263 65.4251 81.8713C65.5767 81.3163 66.0933 79.727 66.5724 78.3395C67.5646 75.4679 67.5005 75.1862 65.8566 75.1862C64.6682 75.1862 64.3337 75.4485 64.0853 76.5751C63.9936 76.9906 63.8244 77.5575 63.7092 77.835C63.594 78.1125 63.2496 79.191 62.9442 80.2316C62.6386 81.2722 62.3469 82.2656 62.2955 82.4389C62.1099 83.0646 61.7596 82.7331 61.496 81.6821C61.2106 80.5456 60.8007 79.3539 60.2456 78.0492C60.06 77.612 59.9078 77.0411 59.9078 76.7808C59.9078 75.8065 59.1876 75.1862 58.0565 75.1862C56.8121 75.1862 56.9132 75.0136 55.4422 79.6599C54.9051 81.3572 54.3868 82.7477 54.2905 82.7502C54.1946 82.7525 53.8109 81.7611 53.4374 80.5469C52.4488 77.3297 51.9487 75.8582 51.7236 75.5015C51.4544 75.0757 49.1169 75.0825 48.9523 75.5096ZM73.5926 75.4238C73.2927 75.6127 73.394 75.9034 74.1621 77.0557C74.6756 77.8269 75.0962 78.5638 75.0962 78.693C75.0962 78.8224 75.1831 78.9659 75.2894 79.0123C75.396 79.0585 75.9931 79.891 76.6171 80.8622C77.7259 82.5893 77.7538 82.6836 77.8791 85.1508L78.0073 87.6735H79.3995H80.7917L80.9183 85.1508C81.032 82.8849 81.1217 82.5126 81.7993 81.4929C82.2138 80.8685 82.6694 80.1665 82.8117 79.9326C82.9538 79.6988 83.4012 78.9609 83.8064 78.2929C84.2115 77.6249 84.7463 76.8156 84.9945 76.4944C85.6942 75.5908 85.3609 75.1862 83.9168 75.1862C82.4787 75.1862 81.9652 75.6024 80.9183 77.6173C80.5702 78.2871 80.1432 78.9871 79.969 79.173C79.795 79.3587 79.6525 79.6127 79.6525 79.7371C79.6525 79.8615 79.4818 79.8981 79.2729 79.8183C79.064 79.7384 78.8931 79.563 78.8931 79.4288C78.8931 78.9609 76.7956 75.6698 76.3438 75.4288C75.7703 75.1228 74.0745 75.1198 73.5926 75.4238ZM92.6259 75.3532C92.3849 75.45 92.3096 76.9485 92.3096 81.64V87.7997H93.7019H95.0941V84.2679C95.0941 82.0815 95.1906 80.7361 95.3471 80.7361C95.4863 80.7361 95.6003 80.833 95.6003 80.9515C95.6003 81.0701 95.8566 81.445 96.1698 81.785C96.4833 82.1249 97.0551 82.8605 97.441 83.4197C97.8266 83.9788 98.3425 84.6539 98.5868 84.9197C98.8314 85.1856 99.3022 85.8004 99.6334 86.286C100.507 87.5673 100.886 87.7997 102.104 87.7997H103.194V81.646C103.194 74.9271 103.254 75.1862 101.706 75.1862C100.527 75.1862 100.41 75.5325 100.41 79.0355C100.41 81.0098 100.316 82.2217 100.17 82.1322C100.039 82.0509 98.8841 80.5969 97.6043 78.9008C96.3248 77.2046 95.1009 75.6751 94.8844 75.5015C94.4955 75.1897 93.238 75.1072 92.6259 75.3532ZM111.611 75.3365C111.371 75.446 111.295 76.9629 111.295 81.6682V87.8557L114.902 87.751C117.913 87.6637 118.662 87.5623 119.432 87.1385C121.63 85.9283 122.686 84.1188 122.686 81.564C122.686 78.7979 121.239 76.6917 118.693 75.753C117.734 75.3993 112.189 75.0734 111.611 75.3365ZM130.307 75.533C130.104 75.7765 130.038 77.6387 130.086 81.7767L130.154 87.6735L134.647 87.7424L139.14 87.8113V86.5441V85.277H136.103H133.065V80.3847C133.065 74.9957 133.125 75.1862 131.43 75.1862C130.971 75.1862 130.466 75.3423 130.307 75.533ZM145.275 75.5015C145.092 75.7278 145.365 76.3514 146.242 77.7089C146.914 78.7495 147.571 79.7232 147.701 79.8726C147.831 80.0219 148.017 80.391 148.113 80.6924C148.209 80.9939 148.394 81.2407 148.523 81.2407C148.653 81.2407 148.759 81.397 148.759 81.5883C148.759 81.7792 148.927 82.0739 149.131 82.2427C149.402 82.4672 149.521 83.2366 149.574 85.1115L149.645 87.6735L151.101 87.7492L152.557 87.8249L152.558 85.3527L152.56 82.8804L154.204 80.3996C155.108 79.0353 155.847 77.8148 155.847 77.6877C155.847 77.5605 155.94 77.4566 156.054 77.4566C156.352 77.4566 157.148 75.6993 156.976 75.421C156.817 75.166 155.272 75.11 154.452 75.3294C153.968 75.4591 153.612 75.9235 152.433 77.9611C151.096 80.2704 151.253 80.2805 149.753 77.7891C149.016 76.5656 148.291 75.4811 148.143 75.3791C147.696 75.0719 145.549 75.1634 145.275 75.5015ZM118.099 78.6135C119.664 79.5353 120.146 82.0023 119.079 83.6296C118.419 84.6355 116.987 85.277 115.4 85.277H114.333V81.7452V78.2134H115.876C116.83 78.2134 117.678 78.366 118.099 78.6135Z" fill="white"/>
</svg>
