<svg width="34" height="33" viewBox="0 0 34 33" fill="none" xmlns="http://www.w3.org/2000/svg">
<g clip-path="url(#clip0_1160_86694)">
<rect x="0.675781" y="0.855713" width="32.7273" height="32" rx="6" fill="#151718"/>
<g opacity="0.2" clip-path="url(#clip1_1160_86694)">
<path opacity="0.2" d="M12.3007 14.539L14.0802 21.0325L10.2062 22.0475L8.42676 15.554L12.3007 14.539Z" fill="white"/>
<path d="M20.6706 8.28626L7.38839 11.7661C7.24161 11.8046 7.11647 11.8985 7.04049 12.0272C6.96451 12.1558 6.94392 12.3087 6.98325 12.4523L9.50419 21.6514C9.58284 21.9385 9.77489 22.1832 10.0381 22.3318C10.3013 22.4804 10.6141 22.5206 10.9076 22.4437L23.083 19.2538C23.3766 19.1769 23.6268 18.9891 23.7788 18.7318C23.9308 18.4744 23.9719 18.1686 23.8933 17.8816L21.3723 8.68239C21.333 8.53888 21.237 8.41652 21.1054 8.34223C20.9738 8.26794 20.8174 8.2478 20.6706 8.28626ZM9.12814 15.9502L11.8953 15.2252L12.4884 17.3897L9.7213 18.1147L9.12814 15.9502ZM13.0021 14.9352L21.3035 12.7603L21.8967 14.9248L13.5953 17.0997L13.0021 14.9352ZM20.4138 9.51351L21.0069 11.678L8.83156 14.8679L8.23839 12.7034L20.4138 9.51351ZM10.0179 19.1969L12.785 18.472L13.3782 20.6365L10.611 21.3615L10.0179 19.1969ZM22.7864 18.1716L14.485 20.3465L13.8919 18.182L22.1933 16.0071L22.7864 18.1716Z" fill="white"/>
</g>
<rect x="12.2637" y="13.2419" width="12.9745" height="9.10504" fill="#202425"/>
<path opacity="0.2" d="M15.911 16.1445V22.8671H11.9004V16.1445H15.911Z" fill="#9BA1A6"/>
<path d="M25.6509 12.2231H11.9001C11.7481 12.2231 11.6024 12.2822 11.495 12.3872C11.3875 12.4923 11.3271 12.6348 11.3271 12.7834V22.3071C11.3271 22.6042 11.4479 22.8892 11.6628 23.0993C11.8777 23.3094 12.1691 23.4275 12.473 23.4275H25.0779C25.3818 23.4275 25.6733 23.3094 25.8882 23.0993C26.1031 22.8892 26.2238 22.6042 26.2238 22.3071V12.7834C26.2238 12.6348 26.1635 12.4923 26.056 12.3872C25.9486 12.2822 25.8028 12.2231 25.6509 12.2231ZM12.473 16.7049H15.3378V18.9458H12.473V16.7049ZM16.4837 16.7049H25.0779V18.9458H16.4837V16.7049ZM25.0779 13.3436V15.5844H12.473V13.3436H25.0779ZM12.473 20.0662H15.3378V22.3071H12.473V20.0662ZM25.0779 22.3071H16.4837V20.0662H25.0779V22.3071Z" fill="#9BA1A6"/>
<rect x="0.0605469" y="-0.331543" width="34.4072" height="33.1873" fill="url(#paint0_linear_1160_86694)"/>
</g>
<rect x="1.17578" y="1.35571" width="31.7273" height="31" rx="5.5" stroke="#313538"/>
<defs>
<linearGradient id="paint0_linear_1160_86694" x1="34.4678" y1="-2.57382" x2="4.39422" y2="31.9617" gradientUnits="userSpaceOnUse">
<stop stop-color="white" stop-opacity="0.15"/>
<stop offset="1" stop-color="white" stop-opacity="0"/>
</linearGradient>
<clipPath id="clip0_1160_86694">
<rect x="0.675781" y="0.855713" width="32.7273" height="32" rx="6" fill="white"/>
</clipPath>
<clipPath id="clip1_1160_86694">
<rect width="18.3074" height="17.9545" fill="white" transform="matrix(0.967351 -0.253441 0.264295 0.964442 4.28516 9.09937)"/>
</clipPath>
</defs>
</svg>
